<svg xmlns="http://www.w3.org/2000/svg" xmlns:xlink="http://www.w3.org/1999/xlink" id="processonSvg1000" viewBox="108.21665954589844 334.0 978.7833404541016 757.929149934663" width="978.7833404541016" height="757.929149934663"><defs id="ProcessOnDefs1001"><marker id="ProcessOnMarker1166" markerUnits="userSpaceOnUse" orient="auto" markerWidth="16.23606797749979" markerHeight="10.550836550532098" viewBox="-1.0 -1.3763819204711736 16.23606797749979 10.550836550532098" refX="-1.0" refY="3.8990363547948754"><path id="ProcessOnPath1167" d="M12.0 3.8990363547948754L0.0 7.798072709589751V0.0Z" stroke="#323232" stroke-width="2.0" fill="#323232" transform="matrix(1.0,0.0,0.0,1.0,0.0,0.0)"/></marker></defs><g id="ProcessOnG1002"><path id="ProcessOnPath1003" d="M108.21665954589844 334.0H1087.0V1091.929149934663H108.21665954589844V334.0Z" fill="#ffffff"/><g id="ProcessOnG1004"><g id="ProcessOnG1005"><path id="ProcessOnPath1006" d="M188.71665954589844 481.92657415993335L964.0 481.92657415993335" stroke="#66b2ff" stroke-width="2.0" stroke-dasharray="10.0 4.0 2.0 4.0" fill="none"/></g><g id="ProcessOnG1007" transform="matrix(1.0,0.0,0.0,1.0,303.0108236617774,442.9304719236477)" opacity="1.0"><path id="ProcessOnPath1008" d="M0.0 0.0L558.9548988232409 0.0L558.9548988232409 20.511188112737003L0.0 20.511188112737003Z" stroke="none" stroke-width="0.0" stroke-dasharray="none" opacity="1.0" fill="none"/><g id="ProcessOnG1009" transform="matrix(1.0,0.0,0.0,1.0,0.0,0.0)"><text id="ProcessOnText1010" fill="#ff0000" font-size="12" x="278.47744941162046" y="12.3" font-family="微软雅黑" font-weight="normal" font-style="normal" text-decoration="none" family="微软雅黑" text-anchor="middle" size="12">HTTP/WebSocket          REST          JSON</text></g></g><g id="ProcessOnG1011" transform="matrix(1.0,0.0,0.0,1.0,183.71665954589844,501.7037076633401)" opacity="1.0"><path id="ProcessOnPath1012" d="M0.0 0.0L778.4044624523387 0.0L778.4044624523387 46.29629233665992L0.0 46.29629233665992Z" stroke="#66b2ff" stroke-width="2.0" stroke-dasharray="none" opacity="1.0" fill="#ffcccc"/><g id="ProcessOnG1013" transform="matrix(1.0,0.0,0.0,1.0,10.0,0.0)"><text id="ProcessOnText1014" fill="#000000" font-size="12" x="0.0" y="12.3" font-family="微软雅黑" font-weight="normal" font-style="normal" text-decoration="none" family="微软雅黑" text-anchor="start" size="12">API Gateway</text></g></g><g id="ProcessOnG1015" transform="matrix(1.0,0.0,0.0,1.0,239.6884004206682,457.0)" opacity="1.0"><path id="ProcessOnPath1016" d="M17.303548068198616 0.0L34.60709613639723 17.303548068198616L23.186754411386147 17.303548068198616L23.186754411386147 31.61602840168402L34.60709613639723 31.61602840168402L17.303548068198616 48.919576469882635L0.0 31.61602840168402L11.420341725011086 31.61602840168402L11.420341725011086 17.303548068198616L0.0 17.303548068198616L17.303548068198616 0.0Z" stroke="#66b2ff" stroke-width="2.0" stroke-dasharray="none" opacity="1.0" fill="#cce5ff"/></g><g id="ProcessOnG1017" transform="matrix(1.0,0.0,0.0,1.0,695.421162988833,457.0)" opacity="1.0"><path id="ProcessOnPath1018" d="M17.303548068198616 0.0L34.60709613639723 17.303548068198616L23.186754411386147 17.303548068198616L23.186754411386147 31.61602840168402L34.60709613639723 31.61602840168402L17.303548068198616 48.919576469882635L0.0 31.61602840168402L11.420341725011086 31.61602840168402L11.420341725011086 17.303548068198616L0.0 17.303548068198616L17.303548068198616 0.0Z" stroke="#66b2ff" stroke-width="2.0" stroke-dasharray="none" opacity="1.0" fill="#cce5ff"/></g><g id="ProcessOnG1019" transform="matrix(1.0,0.0,0.0,1.0,183.71665954589844,841.333251953125)" opacity="1.0"><path id="ProcessOnPath1020" d="M0.0 0.0L762.2833404541016 0.0L762.2833404541016 112.7314608558961L0.0 112.7314608558961Z" stroke="#66b2ff" stroke-width="2.0" stroke-dasharray="none" opacity="1.0" fill="#e5e5e5"/></g><g id="ProcessOnG1021" transform="matrix(1.0,0.0,0.0,1.0,210.2673349644653,857.8131692601692)" opacity="1.0"><path id="ProcessOnPath1022" d="M0.0 0.0L380.73266503553475 0.0L380.73266503553475 38.28831438725092L0.0 38.28831438725092Z" stroke="#66b2ff" stroke-width="2.0" stroke-dasharray="none" opacity="1.0" fill="#cfcfcf"/><g id="ProcessOnG1023" transform="matrix(1.0,0.0,0.0,1.0,10.0,0.0)"><text id="ProcessOnText1024" fill="#000000" font-size="12" x="0.0" y="12.3" font-family="微软雅黑" font-weight="normal" font-style="normal" text-decoration="none" family="微软雅黑" text-anchor="start" size="12">缓存</text></g></g><g id="ProcessOnG1025" transform="matrix(1.0,0.0,0.0,1.0,210.2673349644653,891.496341303217)" opacity="1.0"><path id="ProcessOnPath1026" d="M0.0 0.0L380.7326650355347 0.0L380.7326650355347 47.06838923299165L0.0 47.06838923299165Z" stroke="#66b2ff" stroke-width="2.0" stroke-dasharray="none" opacity="1.0" fill="#cfcfcf"/><g id="ProcessOnG1027" transform="matrix(1.0,0.0,0.0,1.0,10.0,0.0)"><text id="ProcessOnText1028" fill="#000000" font-size="12" x="0.0" y="12.3" font-family="微软雅黑" font-weight="normal" font-style="normal" text-decoration="none" family="微软雅黑" text-anchor="start" size="12">持久化存储</text></g></g><g id="ProcessOnG1029" transform="matrix(1.0,0.0,0.0,1.0,327.1580245165509,861.7479000138914)" opacity="1.0"><path id="ProcessOnPath1030" d="M0.0 4.0Q0.0 0.0 4.0 0.0L99.51285315912816 0.0Q103.51285315912816 0.0 103.51285315912816 4.0L103.51285315912816 22.41885287980661Q103.51285315912816 26.41885287980661 99.51285315912816 26.41885287980661L4.0 26.41885287980661Q0.0 26.41885287980661 0.0 22.41885287980661Z" stroke="#66b2ff" stroke-width="2.0" stroke-dasharray="none" opacity="1.0" fill="#66b2ff"/><g id="ProcessOnG1031" transform="matrix(1.0,0.0,0.0,1.0,10.0,5.7094264399033055)"><text id="ProcessOnText1032" fill="#000000" font-size="12" x="40.75642657956408" y="12.3" font-family="微软雅黑" font-weight="normal" font-style="normal" text-decoration="none" family="微软雅黑" text-anchor="middle" size="12">Redis</text></g></g><g id="ProcessOnG1033" transform="matrix(1.0,0.0,0.0,1.0,454.86934712637503,861.7479000138914)" opacity="1.0"><path id="ProcessOnPath1034" d="M0.0 4.0Q0.0 0.0 4.0 0.0L101.73671359294755 0.0Q105.73671359294755 0.0 105.73671359294755 4.0L105.73671359294755 22.41885287980661Q105.73671359294755 26.41885287980661 101.73671359294755 26.41885287980661L4.0 26.41885287980661Q0.0 26.41885287980661 0.0 22.41885287980661Z" stroke="#66b2ff" stroke-width="2.0" stroke-dasharray="none" opacity="1.0" fill="#66b2ff"/><g id="ProcessOnG1035" transform="matrix(1.0,0.0,0.0,1.0,10.0,5.7094264399033055)"><text id="ProcessOnText1036" fill="#000000" font-size="12" x="41.868356796473776" y="12.3" font-family="微软雅黑" font-weight="normal" font-style="normal" text-decoration="none" family="微软雅黑" text-anchor="middle" size="12">Memcached</text></g></g><g id="ProcessOnG1037" transform="matrix(1.0,0.0,0.0,1.0,291.33678628669105,903.1678963955501)" opacity="1.0"><path id="ProcessOnPath1038" d="M0.0 4.0Q0.0 0.0 4.0 0.0L124.66321371330895 0.0Q128.66321371330895 0.0 128.66321371330895 4.0L128.66321371330895 19.725279048325547Q128.66321371330895 23.725279048325547 124.66321371330895 23.725279048325547L4.0 23.725279048325547Q0.0 23.725279048325547 0.0 19.725279048325547Z" stroke="#66b2ff" stroke-width="2.0" stroke-dasharray="none" opacity="1.0" fill="#66b2ff"/><g id="ProcessOnG1039" transform="matrix(1.0,0.0,0.0,1.0,10.0,4.362639524162773)"><text id="ProcessOnText1040" fill="#000000" font-size="12" x="53.331606856654474" y="12.3" font-family="微软雅黑" font-weight="normal" font-style="normal" text-decoration="none" family="微软雅黑" text-anchor="middle" size="12">MySQL</text></g></g><g id="ProcessOnG1041" transform="matrix(1.0,0.0,0.0,1.0,433.06645187519484,904.2361934364462)" opacity="1.0"><path id="ProcessOnPath1042" d="M0.0 4.0Q0.0 0.0 4.0 0.0L130.93354812480516 0.0Q134.93354812480516 0.0 134.93354812480516 4.0L134.93354812480516 17.588684966533265Q134.93354812480516 21.588684966533265 130.93354812480516 21.588684966533265L4.0 21.588684966533265Q0.0 21.588684966533265 0.0 17.588684966533265Z" stroke="#66b2ff" stroke-width="2.0" stroke-dasharray="none" opacity="1.0" fill="#66b2ff"/><g id="ProcessOnG1043" transform="matrix(1.0,0.0,0.0,1.0,10.0,3.2943424832666324)"><text id="ProcessOnText1044" fill="#000000" font-size="12" x="56.46677406240258" y="12.3" font-family="微软雅黑" font-weight="normal" font-style="normal" text-decoration="none" family="微软雅黑" text-anchor="middle" size="12">MongoDB</text></g></g><g id="ProcessOnG1045" transform="matrix(1.0,0.0,0.0,1.0,183.71665954589844,568.8374733376927)" opacity="1.0"><path id="ProcessOnPath1046" d="M0.0 0.0L123.28334045410156 0.0L123.28334045410156 252.66925229846174L0.0 252.66925229846174Z" stroke="#66b2ff" stroke-width="2.0" stroke-dasharray="none" opacity="1.0" fill="#ffcccc"/><g id="ProcessOnG1047" transform="matrix(1.0,0.0,0.0,1.0,10.0,0.0)"><text id="ProcessOnText1048" fill="#000000" font-size="12" x="0.0" y="12.3" font-family="微软雅黑" font-weight="normal" font-style="normal" text-decoration="none" family="微软雅黑" text-anchor="start" size="12">服务间通信</text></g></g><g id="ProcessOnG1049" transform="matrix(1.0,0.0,0.0,1.0,194.75,591.2232299058294)" opacity="1.0"><path id="ProcessOnPath1050" d="M0.0 0.0L105.25 0.0L105.25 55.70848352329381L0.0 55.70848352329381Z" stroke="#66b2ff" stroke-width="2.0" stroke-dasharray="none" opacity="1.0" fill="#ffcccc"/><g id="ProcessOnG1051" transform="matrix(1.0,0.0,0.0,1.0,10.0,0.0)"><text id="ProcessOnText1052" fill="#000000" font-size="12" x="0.0" y="12.3" font-family="微软雅黑" font-weight="normal" font-style="normal" text-decoration="none" family="微软雅黑" text-anchor="start" size="12">MQ</text></g></g><g id="ProcessOnG1053" transform="matrix(1.0,0.0,0.0,1.0,203.8666648864746,613.2024716674763)" opacity="1.0"><path id="ProcessOnPath1054" d="M0.0 4.0Q0.0 0.0 4.0 0.0L83.48332977294922 0.0Q87.48332977294922 0.0 87.48332977294922 4.0L87.48332977294922 19.75Q87.48332977294922 23.75 83.48332977294922 23.75L4.0 23.75Q0.0 23.75 0.0 19.75Z" stroke="#66b2ff" stroke-width="2.0" stroke-dasharray="none" opacity="1.0" fill="#66b2ff"/><g id="ProcessOnG1055" transform="matrix(1.0,0.0,0.0,1.0,10.0,4.375)"><text id="ProcessOnText1056" fill="#000000" font-size="12" x="32.74166488647461" y="12.3" font-family="微软雅黑" font-weight="normal" font-style="normal" text-decoration="none" family="微软雅黑" text-anchor="middle" size="12">RabbitMQ</text></g></g><g id="ProcessOnG1057" transform="matrix(1.0,0.0,0.0,1.0,684.7772546529027,690.2650122802784)" opacity="1.0"><path id="ProcessOnPath1058" d="M0.0 0.0L128.13132868948458 0.0L128.13132868948458 48.86278903538927L0.0 48.86278903538927Z" stroke="#66b2ff" stroke-width="2.0" stroke-dasharray="none" opacity="1.0" fill="#ffcc99"/><g id="ProcessOnG1059" transform="matrix(1.0,0.0,0.0,1.0,10.0,0.0)"><text id="ProcessOnText1060" fill="#000000" font-size="12" x="0.0" y="12.3" font-family="微软雅黑" font-weight="normal" font-style="normal" text-decoration="none" family="微软雅黑" text-anchor="start" size="12">配置管理中心</text></g></g><g id="ProcessOnG1061" transform="matrix(1.0,0.0,0.0,1.0,684.7714473350376,761.3833899413455)" opacity="1.0"><path id="ProcessOnPath1062" d="M0.0 0.0L128.1429433252149 0.0L128.1429433252149 57.020597344497844L0.0 57.020597344497844Z" stroke="#66b2ff" stroke-width="2.0" stroke-dasharray="none" opacity="1.0" fill="#ffcc99"/><g id="ProcessOnG1063" transform="matrix(1.0,0.0,0.0,1.0,10.0,0.0)"><text id="ProcessOnText1064" fill="#000000" font-size="12" x="0.0" y="12.3" font-family="微软雅黑" font-weight="normal" font-style="normal" text-decoration="none" family="微软雅黑" text-anchor="start" size="12">服务注册中心</text></g></g><g id="ProcessOnG1065" transform="matrix(1.0,0.0,0.0,1.0,695.5662346065357,785.6659008400505)" opacity="1.0"><path id="ProcessOnPath1066" d="M0.0 4.0Q0.0 0.0 4.0 0.0L90.45234740101839 0.0Q94.45234740101839 0.0 94.45234740101839 4.0L94.45234740101839 16.725671767966613Q94.45234740101839 20.725671767966613 90.45234740101839 20.725671767966613L4.0 20.725671767966613Q0.0 20.725671767966613 0.0 16.725671767966613Z" stroke="#66b2ff" stroke-width="2.0" stroke-dasharray="none" opacity="1.0" fill="#66b2ff"/><g id="ProcessOnG1067" transform="matrix(1.0,0.0,0.0,1.0,10.0,2.8628358839833066)"><text id="ProcessOnText1068" fill="#000000" font-size="12" x="36.22617370050919" y="12.3" font-family="微软雅黑" font-weight="normal" font-style="normal" text-decoration="none" family="微软雅黑" text-anchor="middle" size="12">Eureka</text></g></g><g id="ProcessOnG1069" transform="matrix(1.0,0.0,0.0,1.0,697.3622078122261,707.3788383811095)" opacity="1.0"><path id="ProcessOnPath1070" d="M0.0 4.0Q0.0 0.0 4.0 0.0L86.86040098963764 0.0Q90.86040098963764 0.0 90.86040098963764 4.0L90.86040098963764 16.75166771073903Q90.86040098963764 20.75166771073903 86.86040098963764 20.75166771073903L4.0 20.75166771073903Q0.0 20.75166771073903 0.0 16.75166771073903Z" stroke="#66b2ff" stroke-width="2.0" stroke-dasharray="none" opacity="1.0" fill="#66b2ff"/><g id="ProcessOnG1071" transform="matrix(1.0,0.0,0.0,1.0,10.0,2.8758338553695157)"><text id="ProcessOnText1072" fill="#000000" font-size="12" x="34.43020049481882" y="12.3" font-family="微软雅黑" font-weight="normal" font-style="normal" text-decoration="none" family="微软雅黑" text-anchor="middle" size="12">config</text></g></g><g id="ProcessOnG1073" transform="matrix(1.0,0.0,0.0,1.0,684.7714473350376,558.0)" opacity="1.0"><path id="ProcessOnPath1074" d="M0.0 0.0L120.1429433252149 0.0L120.1429433252149 54.0L0.0 54.0Z" stroke="#66b2ff" stroke-width="2.0" stroke-dasharray="none" opacity="1.0" fill="#99ff99"/><g id="ProcessOnG1075" transform="matrix(1.0,0.0,0.0,1.0,10.0,0.0)"><text id="ProcessOnText1076" fill="#000000" font-size="12" x="0.0" y="12.3" font-family="微软雅黑" font-weight="normal" font-style="normal" text-decoration="none" family="微软雅黑" text-anchor="start" size="12">系统监控</text></g></g><g id="ProcessOnG1077" transform="matrix(1.0,0.0,0.0,1.0,695.0154362539747,576.6161783279749)" opacity="1.0"><path id="ProcessOnPath1078" d="M0.0 4.0Q0.0 0.0 4.0 0.0L95.65496548734073 0.0Q99.65496548734073 0.0 99.65496548734073 4.0L99.65496548734073 18.288284072276532Q99.65496548734073 22.288284072276532 95.65496548734073 22.288284072276532L4.0 22.288284072276532Q0.0 22.288284072276532 0.0 18.288284072276532Z" stroke="#66b2ff" stroke-width="2.0" stroke-dasharray="none" opacity="1.0" fill="#66b2ff"/><g id="ProcessOnG1079" transform="matrix(1.0,0.0,0.0,1.0,10.0,3.644142036138266)"><text id="ProcessOnText1080" fill="#000000" font-size="12" x="38.827482743670366" y="12.3" font-family="微软雅黑" font-weight="normal" font-style="normal" text-decoration="none" family="微软雅黑" text-anchor="middle" size="12">Zabbix</text></g></g><g id="ProcessOnG1081" transform="matrix(1.0,0.0,0.0,1.0,534.6083297729492,662.0)" opacity="1.0"><path id="ProcessOnPath1082" d="M0.0 6.0Q0.0 0.0 6.0 0.0L70.62112199823719 0.0Q76.62112199823719 0.0 76.62112199823719 6.0L76.62112199823719 76.92577904250288Q76.62112199823719 82.92577904250288 70.62112199823719 82.92577904250288L6.0 82.92577904250288Q0.0 82.92577904250288 0.0 76.92577904250288L0.0 6.0Z" stroke="none" stroke-width="0.0" stroke-dasharray="none" opacity="1.0" fill="#99ccff"/><path id="ProcessOnPath1083" d="M0.0 57.92577904250288L76.62112199823719 57.92577904250288L76.62112199823719 76.92577904250288Q76.62112199823719 82.92577904250288 70.62112199823719 82.92577904250288L6.0 82.92577904250288Q0.0 82.92577904250288 0.0 76.92577904250288Z" stroke="none" stroke-width="0.0" stroke-dasharray="none" opacity="1.0" fill="#679acd"/><path id="ProcessOnPath1084" d="M0.0 25.0L76.62112199823719 25.0" stroke="#66b2ff" stroke-width="2.0" stroke-dasharray="none" opacity="1.0" fill="#99ccff"/><path id="ProcessOnPath1085" d="M0.0 57.92577904250288L76.62112199823719 57.92577904250288" stroke="#66b2ff" stroke-width="2.0" stroke-dasharray="none" opacity="1.0" fill="#99ccff"/><path id="ProcessOnPath1086" d="M0.0 6.0Q0.0 0.0 6.0 0.0L70.62112199823719 0.0Q76.62112199823719 0.0 76.62112199823719 6.0L76.62112199823719 76.92577904250288Q76.62112199823719 82.92577904250288 70.62112199823719 82.92577904250288L6.0 82.92577904250288Q0.0 82.92577904250288 0.0 76.92577904250288L0.0 6.0Z" stroke="#66b2ff" stroke-width="2.0" stroke-dasharray="none" opacity="1.0" fill="none"/><g id="ProcessOnG1087" transform="matrix(1.0,0.0,0.0,1.0,5.0,33.33788952125144)"><text id="ProcessOnText1088" fill="#000000" font-size="13" x="32.31056099911859" y="13.325" font-family="微软雅黑" font-weight="normal" font-style="normal" text-decoration="none" family="微软雅黑" text-anchor="middle" size="13">API 服务</text></g><g id="ProcessOnG1089" transform="matrix(1.0,0.0,0.0,1.0,5.0,4.375)"><text id="ProcessOnText1090" fill="#000000" font-size="13" x="32.31056099911859" y="13.325" font-family="微软雅黑" font-weight="normal" font-style="normal" text-decoration="none" family="微软雅黑" text-anchor="middle" size="13">REST API</text></g><g id="ProcessOnG1091" transform="matrix(1.0,0.0,0.0,1.0,5.0,62.30077904250288)"><text id="ProcessOnText1092" fill="#000000" font-size="13" x="32.31056099911859" y="13.325" font-family="微软雅黑" font-weight="normal" font-style="normal" text-decoration="none" family="微软雅黑" text-anchor="middle" size="13">通信接口</text></g></g><g id="ProcessOnG1093" transform="matrix(-0.6427876096865394,0.766044443118978,-0.766044443118978,-0.6427876096865394,685.2843838837916,750.1739044881642)" opacity="1.0"><path id="ProcessOnPath1094" d="M10.0 0.0L20.0 10.0L13.4 10.0L13.4 75.13133266516775L6.6000000000000005 75.13133266516775L6.6000000000000005 10.0L0.0 10.0L10.0 0.0Z" stroke="#66b2ff" stroke-width="2.0" stroke-dasharray="none" opacity="1.0" fill="#ccffff"/></g><g id="ProcessOnG1095" transform="matrix(1.0,0.0,0.0,1.0,622.6927058990626,690.2650122802784)" opacity="1.0"><path id="ProcessOnPath1096" d="M0.0 0.0L68.46665954589844 0.0L68.46665954589844 18.856925438288044L0.0 18.856925438288044Z" stroke="none" stroke-width="0.0" stroke-dasharray="none" opacity="1.0" fill="none"/><g id="ProcessOnG1097" transform="matrix(1.0,0.0,0.0,1.0,0.0,-5.571537280855978)"><text id="ProcessOnText1098" fill="#000000" font-size="12" x="33.23332977294922" y="12.3" font-family="微软雅黑" font-weight="normal" font-style="normal" text-decoration="none" family="微软雅黑" text-anchor="middle" size="12">查找、注册</text><text id="ProcessOnText1099" fill="#000000" font-size="12" x="33.23332977294922" y="27.3" font-family="微软雅黑" font-weight="normal" font-style="normal" text-decoration="none" family="微软雅黑" text-anchor="middle" size="12">服务信息</text></g></g><g id="ProcessOnG1100" transform="matrix(1.0,0.0,0.0,1.0,194.75,709.1219377185664)" opacity="1.0"><path id="ProcessOnPath1101" d="M0.0 4.0Q0.0 0.0 4.0 0.0L83.48332977294922 0.0Q87.48332977294922 0.0 87.48332977294922 4.0L87.48332977294922 18.75Q87.48332977294922 22.75 83.48332977294922 22.75L4.0 22.75Q0.0 22.75 0.0 18.75Z" stroke="#66b2ff" stroke-width="2.0" stroke-dasharray="none" opacity="1.0" fill="#66b2ff"/><g id="ProcessOnG1102" transform="matrix(1.0,0.0,0.0,1.0,10.0,3.875)"><text id="ProcessOnText1103" fill="#000000" font-size="12" x="32.74166488647461" y="12.3" font-family="微软雅黑" font-weight="normal" font-style="normal" text-decoration="none" family="微软雅黑" text-anchor="middle" size="12">REST</text></g></g><g id="ProcessOnG1104" transform="matrix(1.0,0.0,0.0,1.0,350.64514003268505,755.9317134291232)" opacity="1.0"><path id="ProcessOnPath1105" d="M7.432232619302566 0.0L15.089684408887027 0.0L15.089684408887027 51.314053692936454L22.52191702818959 51.314053692936454L11.260958514094796 62.57501220703125L0.0 51.314053692936454L7.432232619302566 51.314053692936454L7.432232619302566 0.0Z" stroke="#66b2ff" stroke-width="2.0" stroke-dasharray="none" opacity="1.0" fill="#cce5ff"/></g><g id="ProcessOnG1106" transform="matrix(1.0,0.0,0.0,1.0,446.21665954589844,718.4231935063677)" opacity="1.0"><path id="ProcessOnPath1107" d="M0.0 0.0L68.46665954589844 0.0L68.46665954589844 18.856925438288044L0.0 18.856925438288044Z" stroke="none" stroke-width="0.0" stroke-dasharray="none" opacity="1.0" fill="none"/><g id="ProcessOnG1108" transform="matrix(1.0,0.0,0.0,1.0,0.0,1.9284627191440222)"><text id="ProcessOnText1109" fill="#000000" font-size="12" x="33.23332977294922" y="12.3" font-family="微软雅黑" font-weight="normal" font-style="normal" text-decoration="none" family="微软雅黑" text-anchor="middle" size="12">调用服务</text></g></g><g id="ProcessOnG1110" transform="matrix(1.0,0.0,0.0,1.0,183.71665954589844,1035.110531444856)" opacity="1.0"><path id="ProcessOnPath1111" d="M0.0 0.0L762.2833404541016 0.0L762.2833404541016 36.81861848980702L0.0 36.81861848980702Z" stroke="#66b2ff" stroke-width="2.0" stroke-dasharray="none" opacity="1.0" fill="#b8b8b8"/><g id="ProcessOnG1112" transform="matrix(1.0,0.0,0.0,1.0,10.0,10.284309244903511)"><text id="ProcessOnText1113" fill="#000000" font-size="13" x="370.1416702270508" y="13.325" font-family="微软雅黑" font-weight="normal" font-style="normal" text-decoration="none" family="微软雅黑" text-anchor="middle" size="13">私有云平台</text></g></g><g id="ProcessOnG1114" transform="matrix(1.0,0.0,0.0,1.0,133.71665954589844,565.2394868170402)" opacity="1.0"><path id="ProcessOnPath1115" d="M41.5 0.0Q37.35 0.0 37.35 9.0L37.35 121.47090634594679Q37.35 130.4709063459468 19.5 130.4709063459468Q37.35 130.4709063459468 37.35 139.4709063459468L37.35 251.94181269189357Q37.35 260.9418126918936 41.5 260.9418126918936" stroke="#323232" stroke-width="2.0" stroke-dasharray="none" opacity="1.0" fill="none"/><path id="ProcessOnPath1116" d="M0.0 0.0L41.5 0.0L41.5 260.9418126918936L0.0 260.9418126918936Z" stroke="none" stroke-width="0.0" stroke-dasharray="none" opacity="1.0" fill="none"/><g id="ProcessOnG1117" transform="matrix(1.0,0.0,0.0,1.0,0.0,114.22090634594679)"><text id="ProcessOnText1118" fill="#000000" font-size="13" x="12.5" y="13.325" font-family="微软雅黑" font-weight="normal" font-style="normal" text-decoration="none" family="微软雅黑" text-anchor="end" size="13">服</text><text id="ProcessOnText1119" fill="#000000" font-size="13" x="12.5" y="29.575" font-family="微软雅黑" font-weight="normal" font-style="normal" text-decoration="none" family="微软雅黑" text-anchor="end" size="13">务</text></g></g><g id="ProcessOnG1120" transform="matrix(1.0,0.0,0.0,1.0,132.21665954589844,834.5833129882812)" opacity="1.0"><path id="ProcessOnPath1121" d="M44.5 0.0Q40.05 0.0 40.05 9.0L40.05 50.740699910369926Q40.05 59.740699910369926 22.5 59.740699910369926Q40.05 59.740699910369926 40.05 68.74069991036993L40.05 110.48139982073985Q40.05 119.48139982073985 44.5 119.48139982073985" stroke="#323232" stroke-width="2.0" stroke-dasharray="none" opacity="1.0" fill="none"/><path id="ProcessOnPath1122" d="M0.0 0.0L44.5 0.0L44.5 119.48139982073985L0.0 119.48139982073985Z" stroke="none" stroke-width="0.0" stroke-dasharray="none" opacity="1.0" fill="none"/><g id="ProcessOnG1123" transform="matrix(1.0,0.0,0.0,1.0,0.0,43.490699910369926)"><text id="ProcessOnText1124" fill="#000000" font-size="13" x="15.5" y="13.325" font-family="微软雅黑" font-weight="normal" font-style="normal" text-decoration="none" family="微软雅黑" text-anchor="end" size="13">存</text><text id="ProcessOnText1125" fill="#000000" font-size="13" x="15.5" y="29.575" font-family="微软雅黑" font-weight="normal" font-style="normal" text-decoration="none" family="微软雅黑" text-anchor="end" size="13">储</text></g></g><g id="ProcessOnG1126" transform="matrix(1.0,0.0,0.0,1.0,137.71665954589844,1035.110531444856)" opacity="1.0"><path id="ProcessOnPath1127" d="M39.0 0.0Q35.1 0.0 35.1 3.681861848980691L35.1 14.727447395922763Q35.1 18.409309244903454 17.0 18.409309244903454Q35.1 18.409309244903454 35.1 22.091171093884146L35.1 33.13675664082622Q35.1 36.81861848980691 39.0 36.81861848980691" stroke="#323232" stroke-width="2.0" stroke-dasharray="none" opacity="1.0" fill="none"/><path id="ProcessOnPath1128" d="M0.0 0.0L39.0 0.0L39.0 36.81861848980691L0.0 36.81861848980691Z" stroke="none" stroke-width="0.0" stroke-dasharray="none" opacity="1.0" fill="none"/><g id="ProcessOnG1129" transform="matrix(1.0,0.0,0.0,1.0,0.0,2.1593092449034543)"><text id="ProcessOnText1130" fill="#000000" font-size="13" x="10.0" y="13.325" font-family="微软雅黑" font-weight="normal" font-style="normal" text-decoration="none" family="微软雅黑" text-anchor="end" size="13">平</text><text id="ProcessOnText1131" fill="#000000" font-size="13" x="10.0" y="29.575" font-family="微软雅黑" font-weight="normal" font-style="normal" text-decoration="none" family="微软雅黑" text-anchor="end" size="13">台</text></g></g><g id="ProcessOnG1132" transform="matrix(1.0,0.0,0.0,1.0,132.21665954589844,484.76666259765625)" opacity="1.0"><path id="ProcessOnPath1133" d="M44.5 0.0Q40.05 0.0 40.05 6.534707397654699L40.05 26.138829590618798Q40.05 32.6735369882735 22.5 32.6735369882735Q40.05 32.6735369882735 40.05 39.2082443859282L40.05 58.812366578892295Q40.05 65.347073976547 44.5 65.347073976547" stroke="#323232" stroke-width="2.0" stroke-dasharray="none" opacity="1.0" fill="none"/><path id="ProcessOnPath1134" d="M0.0 0.0L44.5 0.0L44.5 65.347073976547L0.0 65.347073976547Z" stroke="none" stroke-width="0.0" stroke-dasharray="none" opacity="1.0" fill="none"/><g id="ProcessOnG1135" transform="matrix(1.0,0.0,0.0,1.0,0.0,16.423536988273497)"><text id="ProcessOnText1136" fill="#000000" font-size="13" x="15.5" y="13.325" font-family="微软雅黑" font-weight="normal" font-style="normal" text-decoration="none" family="微软雅黑" text-anchor="end" size="13">接</text><text id="ProcessOnText1137" fill="#000000" font-size="13" x="15.5" y="29.575" font-family="微软雅黑" font-weight="normal" font-style="normal" text-decoration="none" family="微软雅黑" text-anchor="end" size="13">口</text></g></g><g id="ProcessOnG1138" transform="matrix(1.0,0.0,0.0,1.0,133.71665954589844,369.0)" opacity="1.0"><path id="ProcessOnPath1139" d="M47.0 0.0Q42.3 0.0 42.3 9.0L42.3 41.720830018192345Q42.3 50.720830018192345 25.0 50.720830018192345Q42.3 50.720830018192345 42.3 59.720830018192345L42.3 92.44166003638469Q42.3 101.44166003638469 47.0 101.44166003638469" stroke="#323232" stroke-width="2.0" stroke-dasharray="none" opacity="1.0" fill="none"/><path id="ProcessOnPath1140" d="M0.0 0.0L47.0 0.0L47.0 101.44166003638469L0.0 101.44166003638469Z" stroke="none" stroke-width="0.0" stroke-dasharray="none" opacity="1.0" fill="none"/><g id="ProcessOnG1141" transform="matrix(1.0,0.0,0.0,1.0,0.0,34.470830018192345)"><text id="ProcessOnText1142" fill="#000000" font-size="13" x="18.0" y="13.325" font-family="微软雅黑" font-weight="normal" font-style="normal" text-decoration="none" family="微软雅黑" text-anchor="end" size="13">前</text><text id="ProcessOnText1143" fill="#000000" font-size="13" x="18.0" y="29.575" font-family="微软雅黑" font-weight="normal" font-style="normal" text-decoration="none" family="微软雅黑" text-anchor="end" size="13">端</text></g></g><g id="ProcessOnG1144" transform="matrix(1.0,0.0,0.0,1.0,431.12524881436116,354.0)" opacity="1.0"><g id="ProcessOnG1146" transform="matrix(0.7513732618685556,0.0,0.0,0.7631578947368421,0.0,0.0)"> <g> <path fill="#31333D" d="M40,69.126C40,72.961,36.805,76,32.876,76H7.119C3.202,76,0,72.879,0,69.126V6.885C0,3.121,3.202,0,7.119,0 h25.757C36.805,0,40,3.121,40,6.885V69.126z"/> <rect x="2.56" y="10.719" fill="#FFFFFF" width="34.877" height="56.163"/> <g> <path fill="#DDDDDD" d="M15.042,5.201c0.489,0,0.877,0.391,0.877,0.877c0,0.486-0.389,0.88-0.877,0.88 c-0.487,0-0.884-0.394-0.884-0.88C14.158,5.592,14.555,5.201,15.042,5.201z"/> <path fill="#164C6D" d="M15.042,5.843c0.129,0,0.235,0.107,0.235,0.235c0,0.138-0.106,0.244-0.235,0.244 c-0.138,0-0.244-0.106-0.244-0.244C14.798,5.95,14.904,5.843,15.042,5.843z"/> <path fill="#DDDDDD" d="M25.833,6.323c0,0.154-0.082,0.235-0.229,0.235h-8c-0.163,0-0.244-0.082-0.244-0.235V6.079 c0-0.159,0.081-0.235,0.244-0.235h8.081c0.15,0,0.232,0.077,0.232,0.235v0.244H25.833z"/> </g> <path fill="#DDDDDD" d="M19.999,68.167c1.765,0,3.202,1.419,3.202,3.196c0,1.77-1.438,3.188-3.202,3.188 c-1.764,0-3.202-1.418-3.202-3.188C16.797,69.586,18.235,68.167,19.999,68.167z"/> </g>  </g></g><g id="ProcessOnG1147" transform="matrix(1.0,0.0,0.0,1.0,464.6337591745445,354.0)" opacity="1.0"><g id="ProcessOnG1149" transform="matrix(0.7513732618685557,0.0,0.0,0.7631578947368421,0.0,0.0)"> <g> <path fill="#31333D" d="M53.2,76H3.8C1.672,76,0,74.252,0,72.2V3.8C0,1.672,1.748,0,3.8,0h49.4C55.327,0,57,1.748,57,3.8v68.4 C57,74.252,55.252,76,53.2,76z"/> <rect x="2.813" y="8.208" fill="#FFFFFF" width="51.375" height="59.205"/> <circle fill="#4C5260" cx="28.5" cy="71.517" r="2.583"/> <circle fill="#4C5260" cx="28.5" cy="4.18" r="0.76"/> </g>  </g></g><g id="ProcessOnG1150" transform="matrix(1.0,0.0,0.0,1.0,433.06645187519484,413.0)" opacity="1.0"><path id="ProcessOnPath1151" d="M0.0 0.0L75.95365350329303 0.0L75.95365350329303 34.0L0.0 34.0Z" stroke="none" stroke-width="0.0" stroke-dasharray="none" opacity="1.0" fill="none"/><g id="ProcessOnG1152" transform="matrix(1.0,0.0,0.0,1.0,0.0,8.875)"><text id="ProcessOnText1153" fill="#000000" font-size="13" x="36.97682675164651" y="13.325" font-family="微软雅黑" font-weight="normal" font-style="normal" text-decoration="none" family="微软雅黑" text-anchor="middle" size="13">移动端</text></g></g><g id="ProcessOnG1154" transform="matrix(1.0,0.0,0.0,1.0,224.0,355.0)" opacity="1.0"><g id="ProcessOnG1156" transform="matrix(1.0,0.0,0.0,0.8260869565217391,0.0,0.0)"> <g> <path fill="#A3A3A3" d="M47.145,59.34h-4.142c-0.274,0-0.413-0.275-0.62-0.482c-2.141-2.76-2.484-4.277-2.002-10.28 c0-0.345-0.346-0.554-0.689-0.482c-2.417,0.482-4.832,0.554-7.178,0.069c-0.345-0.069-0.691,0.138-0.691,0.482 c0.277,6.071-0.068,7.59-2,10.211c-0.208,0.209-0.276,0.483-0.622,0.483h-4.625c-0.622,0-1.036-0.345-1.036,0.276v0.206 c0,0.76,0.553,0.896,1.313,0.896h22.292c0.76,0,1.244-0.344,1.244-1.033v0.068C48.318,59.064,47.835,59.34,47.145,59.34z"/> <path fill="#B7B7B7" d="M69.232,51.198H2.761C1.242,51.198,0,49.955,0,48.439V2.759C0,1.242,1.242,0,2.761,0h66.471 c1.52,0,2.762,1.242,2.762,2.759v45.681C71.994,50.023,70.751,51.198,69.232,51.198z"/> <path fill="#31333D" d="M71.994,45.747H0V2.898C0,1.311,1.311,0,2.899,0H69.51c1.379,0,2.415,1.104,2.415,2.415v43.333 L71.994,45.747L71.994,45.747z"/> <path fill="#D8D8D8" d="M5.04,68.379l5.729-5.104c0.415-0.209,1.036-0.483,1.242-0.483h46.938c0.275,0,0.762,0.206,1.104,0.414 l4.559,5.104H4.832"/> <g> <path fill="#FFFFFF" d="M52.6,67.414H19.189c-0.276,0-0.552-0.208-0.552-0.553v-0.069c0-0.274,0.207-0.552,0.552-0.552h33.479 c0.275,0,0.553,0.208,0.553,0.552v0.069C53.15,67.139,52.943,67.414,52.6,67.414z"/> <path fill="#FFFFFF" d="M11.874,67.414H8.766c-0.275,0-0.552-0.208-0.552-0.553v-0.069c0-0.274,0.208-0.552,0.552-0.552h3.107 c0.275,0,0.552,0.208,0.552,0.552v0.069C12.425,67.139,12.218,67.414,11.874,67.414z"/> <g> <path fill="#FFFFFF" d="M16.36,65.205c0,0.138-0.069,0.346-0.208,0.346h-4.693c-0.069,0-0.208-0.208-0.208-0.346l0,0 c0-0.139,0.069-0.346,0.208-0.346h4.693C16.291,64.859,16.36,65.066,16.36,65.205L16.36,65.205z"/> <path fill="#FFFFFF" d="M59.982,65.205c0,0.138-0.067,0.346-0.207,0.346h-4.693c-0.068,0-0.205-0.208-0.205-0.346l0,0 c0-0.139,0.066-0.346,0.205-0.346h4.693C59.915,64.859,59.982,65.066,59.982,65.205L59.982,65.205z"/> <path fill="#FFFFFF" d="M19.673,65.205c0,0.138-0.07,0.346-0.208,0.346h-2.553c-0.069,0-0.208-0.208-0.208-0.346l0,0 c0-0.139,0.069-0.346,0.208-0.346h2.553C19.603,64.859,19.673,65.066,19.673,65.205L19.673,65.205z"/> <path fill="#FFFFFF" d="M22.917,65.205c0,0.138-0.068,0.346-0.206,0.346h-2.554c-0.07,0-0.208-0.208-0.208-0.346l0,0 c0-0.139,0.069-0.346,0.208-0.346h2.623C22.848,64.859,22.917,65.066,22.917,65.205L22.917,65.205z"/> <path fill="#FFFFFF" d="M27.266,65.205c0,0.138-0.069,0.346-0.208,0.346h-2.554c-0.069,0-0.207-0.208-0.207-0.346l0,0 c0-0.139,0.069-0.346,0.207-0.346h2.554C27.197,64.859,27.266,65.066,27.266,65.205L27.266,65.205z"/> <path fill="#FFFFFF" d="M30.579,65.205c0,0.138-0.069,0.346-0.208,0.346h-2.553c-0.068,0-0.207-0.208-0.207-0.346l0,0 c0-0.139,0.069-0.346,0.207-0.346h2.553C30.51,64.859,30.579,65.066,30.579,65.205L30.579,65.205z"/> <path fill="#FFFFFF" d="M34.928,65.205c0,0.138-0.069,0.346-0.207,0.346h-2.554c-0.069,0-0.207-0.208-0.207-0.346l0,0 c0-0.139,0.069-0.346,0.207-0.346h2.554C34.858,64.859,34.928,65.066,34.928,65.205L34.928,65.205z"/> <path fill="#FFFFFF" d="M38.932,65.205c0,0.138-0.068,0.346-0.207,0.346H36.17c-0.069,0-0.207-0.208-0.207-0.346l0,0 c0-0.139,0.069-0.346,0.207-0.346h2.555C38.861,64.859,38.932,65.066,38.932,65.205L38.932,65.205z"/> <path fill="#FFFFFF" d="M42.59,65.205c0,0.138-0.068,0.346-0.207,0.346h-2.555c-0.068,0-0.206-0.208-0.206-0.346l0,0 c0-0.139,0.069-0.346,0.206-0.346h2.555C42.452,64.859,42.59,65.066,42.59,65.205L42.59,65.205z"/> <path fill="#FFFFFF" d="M46.594,65.205c0,0.138-0.07,0.346-0.207,0.346h-2.554c-0.069,0-0.208-0.208-0.208-0.346l0,0 c0-0.139,0.068-0.346,0.208-0.346h2.554C46.454,64.859,46.594,65.066,46.594,65.205L46.594,65.205z"/> <path fill="#FFFFFF" d="M49.838,65.205c0,0.138-0.068,0.346-0.207,0.346h-2.556c-0.069,0-0.206-0.208-0.206-0.346l0,0 c0-0.139,0.068-0.346,0.206-0.346h2.556C49.77,64.859,49.838,65.066,49.838,65.205L49.838,65.205z"/> <path fill="#FFFFFF" d="M54.186,65.205c0,0.138-0.068,0.346-0.207,0.346h-2.554c-0.069,0-0.207-0.208-0.207-0.346l0,0 c0-0.139,0.069-0.346,0.207-0.346h2.554C54.117,64.859,54.186,65.066,54.186,65.205L54.186,65.205z"/> </g> <g> <path fill="#FFFFFF" d="M15.669,63.825c0,0.067-0.069,0.346-0.207,0.346h-1.795c-0.069,0-0.207-0.276-0.207-0.346l0,0 c0-0.069,0.068-0.345,0.207-0.345h1.795C15.6,63.48,15.669,63.756,15.669,63.825L15.669,63.825z"/> <path fill="#FFFFFF" d="M18.568,63.825c0,0.067-0.069,0.346-0.206,0.346h-1.795c-0.069,0-0.207-0.276-0.207-0.346l0,0 c0-0.069,0.069-0.345,0.207-0.345h1.795C18.499,63.48,18.568,63.756,18.568,63.825L18.568,63.825z"/> <path fill="#FFFFFF" d="M21.813,63.825c0,0.067-0.069,0.346-0.208,0.346h-1.793c-0.069,0-0.208-0.276-0.208-0.346l0,0 c0-0.069,0.07-0.345,0.208-0.345h1.793C21.744,63.48,21.813,63.756,21.813,63.825L21.813,63.825z"/> <path fill="#FFFFFF" d="M24.781,63.825c0,0.067-0.069,0.346-0.207,0.346h-1.795c-0.068,0-0.207-0.276-0.207-0.346l0,0 c0-0.069,0.069-0.345,0.207-0.345h1.795C24.643,63.48,24.781,63.756,24.781,63.825L24.781,63.825z"/> <path fill="#FFFFFF" d="M28.37,63.825c0,0.067-0.068,0.346-0.207,0.346h-1.795c-0.068,0-0.207-0.276-0.207-0.346l0,0 c0-0.069,0.069-0.345,0.207-0.345h1.795C28.301,63.48,28.37,63.756,28.37,63.825L28.37,63.825z"/> <path fill="#FFFFFF" d="M31.27,63.825c0,0.067-0.069,0.346-0.208,0.346h-1.794c-0.069,0-0.207-0.276-0.207-0.346l0,0 c0-0.069,0.069-0.345,0.207-0.345h1.794C31.201,63.48,31.27,63.756,31.27,63.825L31.27,63.825z"/> <path fill="#FFFFFF" d="M34.168,63.825c0,0.067-0.069,0.346-0.207,0.346h-1.795c-0.069,0-0.207-0.276-0.207-0.346l0,0 c0-0.069,0.069-0.345,0.207-0.345h1.795C34.099,63.48,34.168,63.756,34.168,63.825L34.168,63.825z"/> <path fill="#FFFFFF" d="M37.481,63.825c0,0.067-0.069,0.346-0.207,0.346h-1.795c-0.069,0-0.206-0.276-0.206-0.346l0,0 c0-0.069,0.068-0.345,0.206-0.345h1.795C37.412,63.48,37.481,63.756,37.481,63.825L37.481,63.825z"/> <path fill="#FFFFFF" d="M40.727,63.825c0,0.067-0.07,0.346-0.207,0.346h-1.795c-0.068,0-0.207-0.276-0.207-0.346l0,0 c0-0.069,0.068-0.345,0.207-0.345h1.795C40.656,63.48,40.727,63.756,40.727,63.825L40.727,63.825z"/> <path fill="#FFFFFF" d="M44.039,63.825c0,0.067-0.068,0.346-0.206,0.346h-1.797c-0.069,0-0.205-0.276-0.205-0.346l0,0 c0-0.069,0.067-0.345,0.205-0.345h1.797C43.9,63.48,44.039,63.756,44.039,63.825L44.039,63.825z"/> <path fill="#FFFFFF" d="M46.938,63.825c0,0.067-0.067,0.346-0.207,0.346h-1.795c-0.067,0-0.207-0.276-0.207-0.346l0,0 c0-0.069,0.069-0.345,0.207-0.345h1.795C46.87,63.48,46.938,63.756,46.938,63.825L46.938,63.825z"/> <path fill="#FFFFFF" d="M50.529,63.825c0,0.067-0.07,0.346-0.209,0.346h-1.793c-0.07,0-0.207-0.276-0.207-0.346l0,0 c0-0.069,0.068-0.345,0.207-0.345h1.863C50.459,63.48,50.529,63.756,50.529,63.825L50.529,63.825z"/> <path fill="#FFFFFF" d="M53.497,63.825c0,0.067-0.069,0.346-0.208,0.346h-1.794c-0.069,0-0.208-0.276-0.208-0.346l0,0 c0-0.069,0.068-0.345,0.208-0.345h1.794C53.357,63.48,53.497,63.756,53.497,63.825L53.497,63.825z"/> <path fill="#FFFFFF" d="M56.395,63.825c0,0.067-0.068,0.346-0.207,0.346h-1.795c-0.069,0-0.207-0.276-0.207-0.346l0,0 c0-0.069,0.068-0.345,0.207-0.345h1.795C56.326,63.48,56.395,63.756,56.395,63.825L56.395,63.825z"/> </g> <path fill="#FFFFFF" d="M17.049,67.414h-3.105c-0.277,0-0.553-0.208-0.553-0.553v-0.069c0-0.274,0.207-0.552,0.553-0.552h3.105 c0.277,0,0.552,0.208,0.552,0.552v0.069C17.602,67.139,17.395,67.414,17.049,67.414z"/> <path fill="#FFFFFF" d="M56.74,67.414h-2.417c-0.275,0-0.552-0.208-0.552-0.553v-0.069c0-0.274,0.207-0.552,0.552-0.552h2.417 c0.277,0,0.552,0.208,0.552,0.552v0.069C57.292,67.139,57.084,67.414,56.74,67.414z"/> <path fill="#FFFFFF" d="M60.88,67.414h-2.415c-0.277,0-0.553-0.208-0.553-0.553v-0.069c0-0.274,0.207-0.552,0.553-0.552h2.415 c0.276,0,0.554,0.208,0.554,0.552v0.069C61.434,67.139,61.227,67.414,60.88,67.414z"/> </g> <rect x="2.071" y="4.14" fill="#FFFFFF" width="66.955" height="38.641"/> <circle fill="#A8AEAF" cx="35.894" cy="2.208" r="0.483"/> <path fill="#BBBCBC" d="M63.85,69H5.798c-0.345,0-0.69-0.275-0.69-0.689l0,0h59.433l0,0C64.541,68.654,64.264,69,63.85,69z"/> <g> <path fill="#B5B5B5" d="M64.332,64.102c0,0,0.07-0.76,2.348-0.76c0.969,0,1.588,0.553,2.832,1.174c0,0,1.172,0.688,3.448,0.688 c2.349,0,2.763-0.206,2.83-0.274c0,0,0,0.62-1.653,0.76c-1.107,0.066-5.451-0.347-6.558-0.416 c-1.106-0.068-2.833-0.207-3.177-1.104"/> <path fill="#DBDBDB" d="M64.402,64.032c0,0,0.482-1.175,3.519-1.242c3.037-0.069,3.937,0,6.006,0.414 c0.623,0.138,2.14,0.621,2.071,1.451c-0.068,0.827-1.174,0.964-1.863,0.964c0,0-2.209-0.068-3.105-0.414 c-0.967-0.346-2.899-1.52-3.936-1.725C66.126,63.204,65.09,63.342,64.402,64.032z"/> <path fill="#EAEAEA" d="M68.197,63.895c-0.413-0.207-0.826-0.345-1.172-0.481c-0.83-0.208-1.864-0.07-2.623,0.552 c0,0,0.482-1.173,3.519-1.242c1.521-0.068,2.487-0.068,3.313,0c0,0-2.69-0.068-3.45,0.207 C67.025,63.204,68.197,63.895,68.197,63.895z"/> </g> </g>  </g><g id="ProcessOnG1157" transform="matrix(1.0,0.0,0.0,1.0,-20.0,70.75)"><text id="ProcessOnText1158" fill="#000000" font-size="13" x="57.0" y="13.325" font-family="微软雅黑" font-weight="normal" font-style="normal" text-decoration="none" family="微软雅黑" text-anchor="middle" size="13">PC</text></g></g><g id="ProcessOnG1159" transform="matrix(1.0,0.0,0.0,1.0,651.0,355.0)" opacity="1.0"><g id="ProcessOnG1161" transform="matrix(1.0,0.0,0.0,1.0,0.0,0.0)"> <g> <path fill="#34485B" d="M74.958,57H3.872c-2.107,0-3.861-2.186-3.861-3.938v-0.703c0-1.762,1.754-1.493,3.861-1.493h71.086 c2.104,0,4.035-0.089,4.035,1.661v0.535C78.993,54.814,77.152,57,74.958,57z"/> <path fill="#5E6E7E" d="M74.958,53.498H1.942c-2.196,0-1.932-0.971-1.932-2.543l8.424-31.486c0-1.489,1.757-2.805,3.951-2.805 h54.239c2.19,0,3.942,1.405,3.942,2.894l8.427,32.01C78.993,53.063,79.35,53.498,74.958,53.498z"/> <path fill="#FFFFFF" d="M6.417,48.232l6.755-27.447c0.089-0.174,0.089-0.524,0.089-0.703c0.177-1.227,1.579-2.543,3.337-2.543 H62.23c1.844,0,3.336,1.494,3.336,2.809l6.674,27.886H6.417V48.232z"/> <path fill="#C1CE62" d="M71.27,56.302h1.933c0.178,0,0.356-0.351,0.356-0.616V55.52c0-0.358-0.18-0.614-0.356-0.614H71.27 c-0.17,0-0.347,0.344-0.347,0.614v0.166C70.923,56.041,71.1,56.302,71.27,56.302z"/> <path fill="#C1CE62" d="M66.973,56.302h1.932c0.178,0,0.35-0.351,0.35-0.616V55.52c0-0.358-0.172-0.614-0.35-0.614h-1.932 c-0.18,0-0.349,0.344-0.349,0.614v0.166C66.536,56.041,66.793,56.302,66.973,56.302z"/> <g> <path fill="#34485B" d="M72.854,35.083H6.066c-2.195,0-6.056-1.06-6.056-2.543L8.434,2.543c0-1.4,1.757-2.543,3.951-2.543h54.239 c2.19,0,3.942,1.229,3.942,2.633l8.427,29.907C78.82,34.023,74.958,35.083,72.854,35.083z"/> <path fill="#20323F" d="M0.01,32.451L0.01,32.451c0,1.752,3.861,2.632,6.056,2.632h66.877c1.931,0,5.092-0.702,5.877-2.019 c0.084-0.179,0.173-0.437,0.173-0.613H0.01z"/> <polygon fill="#386082" points="78.993,32.451 0.01,32.451 0.799,29.641 78.035,29.641 "/> </g> </g>  </g><g id="ProcessOnG1162" transform="matrix(1.0,0.0,0.0,1.0,-20.0,70.75)"><text id="ProcessOnText1163" fill="#000000" font-size="13" x="58.5" y="13.325" font-family="微软雅黑" font-weight="normal" font-style="normal" text-decoration="none" family="微软雅黑" text-anchor="middle" size="13">其它终端</text></g></g><g id="ProcessOnG1164"><path id="ProcessOnPath1165" d="M748.842918997645 761.3833899413455L748.842918997645 750.2555956285066L748.8429189976449 750.2555956285066L748.8429189976449 749.2555956285066" stroke="#323232" stroke-width="2.0" stroke-dasharray="none" fill="none" marker-end="url(#ProcessOnMarker1166)"/></g><g id="ProcessOnG1168" transform="matrix(1.0,0.0,0.0,1.0,430.98308095858806,662.0)" opacity="1.0"><path id="ProcessOnPath1169" d="M0.0 6.0Q0.0 0.0 6.0 0.0L70.62112199823719 0.0Q76.62112199823719 0.0 76.62112199823719 6.0L76.62112199823719 76.92577904250288Q76.62112199823719 82.92577904250288 70.62112199823719 82.92577904250288L6.0 82.92577904250288Q0.0 82.92577904250288 0.0 76.92577904250288L0.0 6.0Z" stroke="none" stroke-width="0.0" stroke-dasharray="none" opacity="1.0" fill="#99ccff"/><path id="ProcessOnPath1170" d="M0.0 57.92577904250288L76.62112199823719 57.92577904250288L76.62112199823719 76.92577904250288Q76.62112199823719 82.92577904250288 70.62112199823719 82.92577904250288L6.0 82.92577904250288Q0.0 82.92577904250288 0.0 76.92577904250288Z" stroke="none" stroke-width="0.0" stroke-dasharray="none" opacity="1.0" fill="#679acd"/><path id="ProcessOnPath1171" d="M0.0 25.0L76.62112199823719 25.0" stroke="#66b2ff" stroke-width="2.0" stroke-dasharray="none" opacity="1.0" fill="#99ccff"/><path id="ProcessOnPath1172" d="M0.0 57.92577904250288L76.62112199823719 57.92577904250288" stroke="#66b2ff" stroke-width="2.0" stroke-dasharray="none" opacity="1.0" fill="#99ccff"/><path id="ProcessOnPath1173" d="M0.0 6.0Q0.0 0.0 6.0 0.0L70.62112199823719 0.0Q76.62112199823719 0.0 76.62112199823719 6.0L76.62112199823719 76.92577904250288Q76.62112199823719 82.92577904250288 70.62112199823719 82.92577904250288L6.0 82.92577904250288Q0.0 82.92577904250288 0.0 76.92577904250288L0.0 6.0Z" stroke="#66b2ff" stroke-width="2.0" stroke-dasharray="none" opacity="1.0" fill="none"/><g id="ProcessOnG1174" transform="matrix(1.0,0.0,0.0,1.0,5.0,33.33788952125144)"><text id="ProcessOnText1175" fill="#000000" font-size="13" x="32.31056099911859" y="13.325" font-family="微软雅黑" font-weight="normal" font-style="normal" text-decoration="none" family="微软雅黑" text-anchor="middle" size="13">API 服务</text></g><g id="ProcessOnG1176" transform="matrix(1.0,0.0,0.0,1.0,5.0,4.375)"><text id="ProcessOnText1177" fill="#000000" font-size="13" x="32.31056099911859" y="13.325" font-family="微软雅黑" font-weight="normal" font-style="normal" text-decoration="none" family="微软雅黑" text-anchor="middle" size="13">REST API</text></g><g id="ProcessOnG1178" transform="matrix(1.0,0.0,0.0,1.0,5.0,62.30077904250288)"><text id="ProcessOnText1179" fill="#000000" font-size="13" x="32.31056099911859" y="13.325" font-family="微软雅黑" font-weight="normal" font-style="normal" text-decoration="none" family="微软雅黑" text-anchor="middle" size="13">通信接口</text></g></g><g id="ProcessOnG1180" transform="matrix(1.0,0.0,0.0,1.0,616.2977697874359,857.8131692601692)" opacity="1.0"><path id="ProcessOnPath1181" d="M0.0 0.0L158.715316178158 0.0L158.715316178158 79.77162624180778L0.0 79.77162624180778Z" stroke="#66b2ff" stroke-width="2.0" stroke-dasharray="none" opacity="1.0" fill="#e5e5e5"/><g id="ProcessOnG1182" transform="matrix(1.0,0.0,0.0,1.0,10.0,0.0)"><text id="ProcessOnText1183" fill="#000000" font-size="12" x="0.0" y="12.3" font-family="微软雅黑" font-weight="normal" font-style="normal" text-decoration="none" family="微软雅黑" text-anchor="start" size="12">文件存储</text></g></g><g id="ProcessOnG1184" transform="matrix(1.0,0.0,0.0,1.0,640.0795378407887,883.5296704153845)" opacity="1.0"><path id="ProcessOnPath1185" d="M0.0 4.0Q0.0 0.0 4.0 0.0L130.93354812480516 0.0Q134.93354812480516 0.0 134.93354812480516 4.0L134.93354812480516 17.588684966533265Q134.93354812480516 21.588684966533265 130.93354812480516 21.588684966533265L4.0 21.588684966533265Q0.0 21.588684966533265 0.0 17.588684966533265Z" stroke="#66b2ff" stroke-width="2.0" stroke-dasharray="none" opacity="1.0" fill="#66b2ff"/><g id="ProcessOnG1186" transform="matrix(1.0,0.0,0.0,1.0,10.0,3.2943424832666324)"><text id="ProcessOnText1187" fill="#000000" font-size="12" x="56.46677406240258" y="12.3" font-family="微软雅黑" font-weight="normal" font-style="normal" text-decoration="none" family="微软雅黑" text-anchor="middle" size="12">NFS</text></g></g><g id="ProcessOnG1188" transform="matrix(1.0,0.0,0.0,1.0,561.657932257973,758.9317134291232)" opacity="1.0"><path id="ProcessOnPath1189" d="M7.432232619302566 0.0L15.089684408887027 0.0L15.089684408887027 51.314053692936454L22.52191702818959 51.314053692936454L11.260958514094796 62.57501220703125L0.0 51.314053692936454L7.432232619302566 51.314053692936454L7.432232619302566 0.0Z" stroke="#66b2ff" stroke-width="2.0" stroke-dasharray="none" opacity="1.0" fill="#cce5ff"/></g><g id="ProcessOnG1190" transform="matrix(1.0,0.0,0.0,1.0,327.3578321442269,579.6161783279749)" opacity="1.0"><path id="ProcessOnPath1191" d="M0.0 4.0Q0.0 0.0 4.0 0.0L279.8716196269595 0.0Q283.8716196269595 0.0 283.8716196269595 4.0L283.8716196269595 32.38382167202508Q283.8716196269595 36.38382167202508 279.8716196269595 36.38382167202508L4.0 36.38382167202508Q0.0 36.38382167202508 0.0 32.38382167202508Z" stroke="#66b2ff" stroke-width="2.0" stroke-dasharray="none" opacity="1.0" fill="#99ccff"/><g id="ProcessOnG1192" transform="matrix(1.0,0.0,0.0,1.0,10.0,10.06691083601254)"><text id="ProcessOnText1193" fill="#000000" font-size="13" x="130.93580981347975" y="13.325" font-family="微软雅黑" font-weight="normal" font-style="normal" text-decoration="none" family="微软雅黑" text-anchor="middle" size="13">权限服务</text></g></g><g id="ProcessOnG1194" transform="matrix(1.0,0.0,0.0,1.0,327.3578321442269,662.0)" opacity="1.0"><path id="ProcessOnPath1195" d="M0.0 6.0Q0.0 0.0 6.0 0.0L70.62112199823719 0.0Q76.62112199823719 0.0 76.62112199823719 6.0L76.62112199823719 76.92577904250288Q76.62112199823719 82.92577904250288 70.62112199823719 82.92577904250288L6.0 82.92577904250288Q0.0 82.92577904250288 0.0 76.92577904250288L0.0 6.0Z" stroke="none" stroke-width="0.0" stroke-dasharray="none" opacity="1.0" fill="#99ccff"/><path id="ProcessOnPath1196" d="M0.0 57.92577904250288L76.62112199823719 57.92577904250288L76.62112199823719 76.92577904250288Q76.62112199823719 82.92577904250288 70.62112199823719 82.92577904250288L6.0 82.92577904250288Q0.0 82.92577904250288 0.0 76.92577904250288Z" stroke="none" stroke-width="0.0" stroke-dasharray="none" opacity="1.0" fill="#679acd"/><path id="ProcessOnPath1197" d="M0.0 25.0L76.62112199823719 25.0" stroke="#66b2ff" stroke-width="2.0" stroke-dasharray="none" opacity="1.0" fill="#99ccff"/><path id="ProcessOnPath1198" d="M0.0 57.92577904250288L76.62112199823719 57.92577904250288" stroke="#66b2ff" stroke-width="2.0" stroke-dasharray="none" opacity="1.0" fill="#99ccff"/><path id="ProcessOnPath1199" d="M0.0 6.0Q0.0 0.0 6.0 0.0L70.62112199823719 0.0Q76.62112199823719 0.0 76.62112199823719 6.0L76.62112199823719 76.92577904250288Q76.62112199823719 82.92577904250288 70.62112199823719 82.92577904250288L6.0 82.92577904250288Q0.0 82.92577904250288 0.0 76.92577904250288L0.0 6.0Z" stroke="#66b2ff" stroke-width="2.0" stroke-dasharray="none" opacity="1.0" fill="none"/><g id="ProcessOnG1200" transform="matrix(1.0,0.0,0.0,1.0,5.0,33.33788952125144)"><text id="ProcessOnText1201" fill="#000000" font-size="13" x="32.31056099911859" y="13.325" font-family="微软雅黑" font-weight="normal" font-style="normal" text-decoration="none" family="微软雅黑" text-anchor="middle" size="13">API 服务</text></g><g id="ProcessOnG1202" transform="matrix(1.0,0.0,0.0,1.0,5.0,4.375)"><text id="ProcessOnText1203" fill="#000000" font-size="13" x="32.31056099911859" y="13.325" font-family="微软雅黑" font-weight="normal" font-style="normal" text-decoration="none" family="微软雅黑" text-anchor="middle" size="13">REST API</text></g><g id="ProcessOnG1204" transform="matrix(1.0,0.0,0.0,1.0,5.0,62.30077904250288)"><text id="ProcessOnText1205" fill="#000000" font-size="13" x="32.31056099911859" y="13.325" font-family="微软雅黑" font-weight="normal" font-style="normal" text-decoration="none" family="微软雅黑" text-anchor="middle" size="13">通信接口</text></g></g><g id="ProcessOnG1206" transform="matrix(1.0,0.0,0.0,1.0,449.64514003268505,758.9317134291232)" opacity="1.0"><path id="ProcessOnPath1207" d="M7.432232619302566 0.0L15.089684408887027 0.0L15.089684408887027 51.314053692936454L22.52191702818959 51.314053692936454L11.260958514094796 62.57501220703125L0.0 51.314053692936454L7.432232619302566 51.314053692936454L7.432232619302566 0.0Z" stroke="#66b2ff" stroke-width="2.0" stroke-dasharray="none" opacity="1.0" fill="#cce5ff"/></g><g id="ProcessOnG1208" transform="matrix(1.0,0.0,0.0,1.0,458.03268344361186,548.0)" opacity="1.0"><path id="ProcessOnPath1209" d="M7.432232619302566 0.0L15.089684408887027 0.0L15.089684408887027 19.739041485905204L22.52191702818959 19.739041485905204L11.260958514094796 31.0L0.0 19.739041485905204L7.432232619302566 19.739041485905204L7.432232619302566 0.0Z" stroke="#66b2ff" stroke-width="2.0" stroke-dasharray="none" opacity="1.0" fill="#cce5ff"/></g><g id="ProcessOnG1210" transform="matrix(0.573576436351046,0.8191520442889918,-0.8191520442889918,0.573576436351046,399.97569749208776,618.8332487773722)" opacity="1.0"><path id="ProcessOnPath1211" d="M6.891855642353223 0.0L13.992555395080785 0.0L13.992555395080785 31.00858958941393L20.884411037434006 31.00858958941393L10.442205518717003 41.45079510813093L0.0 31.00858958941393L6.891855642353223 31.00858958941393L6.891855642353223 0.0Z" stroke="#66b2ff" stroke-width="2.0" stroke-dasharray="none" opacity="1.0" fill="#cce5ff"/></g><g id="ProcessOnG1212" transform="matrix(1.0,0.0,0.0,1.0,459.78232011274656,623.5492048918691)" opacity="1.0"><path id="ProcessOnPath1213" d="M6.277472417673662 0.0L12.745171272246527 0.0L12.745171272246527 23.93947326317084L19.022643689920187 23.93947326317084L9.511321844960094 33.45079510813093L0.0 23.93947326317084L6.277472417673662 23.93947326317084L6.277472417673662 0.0Z" stroke="#66b2ff" stroke-width="2.0" stroke-dasharray="none" opacity="1.0" fill="#cce5ff"/></g><g id="ProcessOnG1214" transform="matrix(0.7071067811865474,-0.7071067811865477,0.7071067811865477,0.7071067811865474,534.2935406502236,635.6125041415096)" opacity="1.0"><path id="ProcessOnPath1215" d="M7.666794097427725 0.0L15.565915288716896 0.0L15.565915288716896 27.63118712028728L23.23270938614462 27.63118712028728L11.61635469307231 39.24754181335959L0.0 27.63118712028728L7.666794097427725 27.63118712028728L7.666794097427725 0.0Z" stroke="#66b2ff" stroke-width="2.0" stroke-dasharray="none" opacity="1.0" fill="#cce5ff"/></g><g id="ProcessOnG1216" transform="matrix(1.0,0.0,0.0,1.0,487.0,551.0)" opacity="1.0"><path id="ProcessOnPath1217" d="M0.0 0.0L164.0 0.0L164.0 24.0L0.0 24.0Z" stroke="none" stroke-width="0.0" stroke-dasharray="none" opacity="1.0" fill="none"/><g id="ProcessOnG1218" transform="matrix(1.0,0.0,0.0,1.0,0.0,3.875)"><text id="ProcessOnText1219" fill="#000000" font-size="13" x="81.0" y="13.325" font-family="微软雅黑" font-weight="normal" font-style="normal" text-decoration="none" family="微软雅黑" text-anchor="middle" size="13">转发请求并权限判断</text></g></g><g id="ProcessOnG1220" transform="matrix(1.0,0.0,0.0,1.0,684.7714473350376,623.2746024459345)" opacity="1.0"><path id="ProcessOnPath1221" d="M0.0 0.0L120.1429433252149 0.0L120.1429433252149 54.0L0.0 54.0Z" stroke="#66b2ff" stroke-width="2.0" stroke-dasharray="none" opacity="1.0" fill="#99ff99"/><g id="ProcessOnG1222" transform="matrix(1.0,0.0,0.0,1.0,10.0,0.0)"><text id="ProcessOnText1223" fill="#000000" font-size="12" x="0.0" y="12.3" font-family="微软雅黑" font-weight="normal" font-style="normal" text-decoration="none" family="微软雅黑" text-anchor="start" size="12">日志分析</text></g></g><g id="ProcessOnG1224" transform="matrix(1.0,0.0,0.0,1.0,699.0154362539747,638.7117159277235)" opacity="1.0"><path id="ProcessOnPath1225" d="M0.0 4.0Q0.0 0.0 4.0 0.0L95.65496548734073 0.0Q99.65496548734073 0.0 99.65496548734073 4.0L99.65496548734073 18.288284072276532Q99.65496548734073 22.288284072276532 95.65496548734073 22.288284072276532L4.0 22.288284072276532Q0.0 22.288284072276532 0.0 18.288284072276532Z" stroke="#66b2ff" stroke-width="2.0" stroke-dasharray="none" opacity="1.0" fill="#66b2ff"/><g id="ProcessOnG1226" transform="matrix(1.0,0.0,0.0,1.0,10.0,3.644142036138266)"><text id="ProcessOnText1227" fill="#000000" font-size="12" x="38.827482743670366" y="12.3" font-family="微软雅黑" font-weight="normal" font-style="normal" text-decoration="none" family="微软雅黑" text-anchor="middle" size="12">logstash</text></g></g><g id="ProcessOnG1228" transform="matrix(1.0,0.0,0.0,1.0,822.7166595458984,565.2394868170402)" opacity="1.0"><path id="ProcessOnPath1229" d="M0.0 0.0L123.28334045410156 0.0L123.28334045410156 256.1645004688031L0.0 256.1645004688031Z" stroke="#66b2ff" stroke-width="2.0" stroke-dasharray="none" opacity="1.0" fill="#ffcccc"/><g id="ProcessOnG1230" transform="matrix(1.0,0.0,0.0,1.0,10.0,0.0)"><text id="ProcessOnText1231" fill="#000000" font-size="12" x="0.0" y="12.3" font-family="微软雅黑" font-weight="normal" font-style="normal" text-decoration="none" family="微软雅黑" text-anchor="start" size="12">大数据</text></g></g><g id="ProcessOnG1232" transform="matrix(1.0,0.0,0.0,1.0,831.7333297729492,587.2232299058294)" opacity="1.0"><path id="ProcessOnPath1233" d="M0.0 0.0L105.25 0.0L105.25 55.70848352329381L0.0 55.70848352329381Z" stroke="#66b2ff" stroke-width="2.0" stroke-dasharray="none" opacity="1.0" fill="#ffcccc"/><g id="ProcessOnG1234" transform="matrix(1.0,0.0,0.0,1.0,10.0,0.0)"><text id="ProcessOnText1235" fill="#000000" font-size="12" x="0.0" y="12.3" font-family="微软雅黑" font-weight="normal" font-style="normal" text-decoration="none" family="微软雅黑" text-anchor="start" size="12">数据分析</text></g></g><g id="ProcessOnG1236" transform="matrix(1.0,0.0,0.0,1.0,960.0,565.2394868170402)" opacity="1.0"><path id="ProcessOnPath1237" d="M0.0 243.7605131829598Q9.0 243.7605131829598 9.0 234.7605131829598L9.0 130.8802565914799Q9.0 121.8802565914799 22.0 121.8802565914799Q9.0 121.8802565914799 9.0 112.8802565914799L9.0 9.0Q9.0 0.0 0.0 0.0" stroke="#323232" stroke-width="2.0" stroke-dasharray="none" opacity="1.0" fill="none"/><path id="ProcessOnPath1238" d="M0.0 0.0L107.0 0.0L107.0 243.7605131829598L0.0 243.7605131829598Z" stroke="none" stroke-width="0.0" stroke-dasharray="none" opacity="1.0" fill="none"/><g id="ProcessOnG1239" transform="matrix(1.0,0.0,0.0,1.0,27.0,97.5052565914799)"><text id="ProcessOnText1240" fill="#000000" font-size="13" x="0.0" y="13.325" font-family="微软雅黑" font-weight="normal" font-style="normal" text-decoration="none" family="微软雅黑" text-anchor="start" size="13">大</text><text id="ProcessOnText1241" fill="#000000" font-size="13" x="0.0" y="29.575" font-family="微软雅黑" font-weight="normal" font-style="normal" text-decoration="none" family="微软雅黑" text-anchor="start" size="13">数</text><text id="ProcessOnText1242" fill="#000000" font-size="13" x="0.0" y="45.825" font-family="微软雅黑" font-weight="normal" font-style="normal" text-decoration="none" family="微软雅黑" text-anchor="start" size="13">据</text></g></g><g id="ProcessOnG1243" transform="matrix(1.0,0.0,0.0,1.0,831.7333297729492,662.2151193749655)" opacity="1.0"><path id="ProcessOnPath1244" d="M0.0 0.0L105.25 0.0L105.25 55.70848352329381L0.0 55.70848352329381Z" stroke="#66b2ff" stroke-width="2.0" stroke-dasharray="none" opacity="1.0" fill="#ffcccc"/><g id="ProcessOnG1245" transform="matrix(1.0,0.0,0.0,1.0,10.0,0.0)"><text id="ProcessOnText1246" fill="#000000" font-size="12" x="0.0" y="12.3" font-family="微软雅黑" font-weight="normal" font-style="normal" text-decoration="none" family="微软雅黑" text-anchor="start" size="12">数据处理与集</text><text id="ProcessOnText1247" fill="#000000" font-size="12" x="0.0" y="27.3" font-family="微软雅黑" font-weight="normal" font-style="normal" text-decoration="none" family="微软雅黑" text-anchor="start" size="12">成</text></g></g><g id="ProcessOnG1248" transform="matrix(1.0,0.0,0.0,1.0,831.7333297729492,737.2801189446558)" opacity="1.0"><path id="ProcessOnPath1249" d="M0.0 0.0L105.25 0.0L105.25 55.70848352329381L0.0 55.70848352329381Z" stroke="#66b2ff" stroke-width="2.0" stroke-dasharray="none" opacity="1.0" fill="#ffcccc"/><g id="ProcessOnG1250" transform="matrix(1.0,0.0,0.0,1.0,10.0,0.0)"><text id="ProcessOnText1251" fill="#000000" font-size="12" x="0.0" y="12.3" font-family="微软雅黑" font-weight="normal" font-style="normal" text-decoration="none" family="微软雅黑" text-anchor="start" size="12">数据采集</text></g></g><g id="ProcessOnG1252" transform="matrix(1.0,0.0,0.0,1.0,820.0,363.0)" opacity="1.0"><g id="ProcessOnG1254" transform="matrix(0.95,0.0,0.0,0.9827586206896551,0.0,0.0)"> <g> <path fill="#B3B4B6" d="M18.032,7.919c0.153-0.291,0.298-0.65,0.298-1.089c0-0.802-0.298-0.65-0.73-0.65 c-0.43,0-0.728-0.074-0.728,0.65c0,0.438,0.07,0.798,0.22,1.018c-0.149,10.168-0.291,20.348-0.43,30.448 c0,0.494,0.43,0.947,0.938,0.947s0.942-0.453,0.942-0.947C18.33,28.27,18.186,18.088,18.032,7.919z"/> <path fill="#B3B4B6" d="M63.715,7.919c0.156-0.291,0.291-0.65,0.291-1.089c0-0.802-0.291-0.65-0.736-0.65 c-0.354,0-0.734-0.074-0.734,0.65c0,0.438,0.086,0.798,0.242,1.018c-0.156,10.168-0.313,20.348-0.456,30.448 c0,0.494,0.456,0.947,0.948,0.947c0.516,0,0.948-0.453,0.948-0.947C64.006,28.27,63.871,18.088,63.715,7.919z"/> <path fill="#212128" d="M78.91,52.099H1.09C0.51,52.099,0,51.593,0,51.01v-6.833c0-0.577,0.51-1.093,1.09-1.093h77.82 c0.586,0,1.09,0.516,1.09,1.093v6.833C80,51.671,79.496,52.099,78.91,52.099z"/> <path fill="#394044" d="M77.535,58H2.477c-1.019,0-1.826-0.81-1.826-1.828V39.173c0-1.018,0.807-1.824,1.826-1.824h75.058 c1.023,0,1.805,0.807,1.805,1.824v16.999C79.34,57.19,78.559,58,77.535,58z"/> <rect x="3.928" y="42.439" fill="#EDEDED" width="72.201" height="10.324"/> <path fill="#FFFFFF" stroke="#2A6ED1" stroke-miterlimit="10" d="M66,46.25c0.976,0,1.75,0.79,1.75,1.742 c0,0.969-0.774,1.758-1.75,1.758c-0.962,0-1.75-0.789-1.75-1.758C64.25,47.04,65.038,46.25,66,46.25z"/> <path fill="#FFFFFF" stroke="#2A6ED1" stroke-miterlimit="10" d="M56,46.25c0.975,0,1.75,0.79,1.75,1.742 c0,0.969-0.775,1.758-1.75,1.758c-0.961,0-1.75-0.789-1.75-1.758C54.25,47.04,55.039,46.25,56,46.25z"/> <path fill="#FFFFFF" stroke="#2A6ED1" stroke-miterlimit="10" d="M46,46.25c0.975,0,1.75,0.79,1.75,1.742 c0,0.969-0.775,1.758-1.75,1.758c-0.961,0-1.75-0.789-1.75-1.758C44.25,47.04,45.039,46.25,46,46.25z"/> <g> <path fill="#2A59A9" d="M14.045,12.572c-0.23,0-0.372-0.07-0.513-0.221c-2.477-2.537-2.477-6.609,0-9.155 c0.283-0.29,0.722-0.29,1.021,0c0.281,0.296,0.281,0.725,0,1.018c-1.97,1.966-1.97,5.091,0,7.123c0.281,0.288,0.281,0.726,0,1.015 C14.396,12.501,14.253,12.572,14.045,12.572z"/> <path fill="#2A59A9" d="M11.125,15.473c-0.212,0-0.361-0.073-0.509-0.214c-4.071-4.215-4.071-10.831,0-15.046 c0.297-0.284,0.734-0.284,1.019,0c0.301,0.296,0.301,0.734,0,1.015c-3.566,3.636-3.566,9.378,0,13.012 c0.301,0.296,0.301,0.726,0,1.019C11.493,15.4,11.271,15.473,11.125,15.473z"/> <path fill="#2A59A9" d="M20.803,12.572c0.216,0,0.358-0.07,0.508-0.221c2.469-2.537,2.469-6.609,0-9.155 c-0.292-0.29-0.73-0.29-1.016,0C20,3.492,20,3.921,20.295,4.214c1.956,1.966,1.956,5.091,0,7.123 c-0.295,0.288-0.295,0.726,0,1.015C20.439,12.501,20.651,12.572,20.803,12.572z"/> <path fill="#2A59A9" d="M23.779,15.473c0.227,0,0.368-0.073,0.509-0.214c4.077-4.215,4.077-10.831,0-15.046 c-0.283-0.284-0.722-0.284-1.019,0c-0.279,0.296-0.279,0.734,0,1.015c3.567,3.636,3.567,9.378,0,13.012 c-0.279,0.296-0.279,0.726,0,1.019C23.42,15.4,23.567,15.473,23.779,15.473z"/> </g> <g> <path fill="#2A59A9" d="M56.801,15.473c-0.212,0-0.359-0.073-0.516-0.214c-4.063-4.215-4.063-10.831,0-15.046 c0.304-0.284,0.729-0.284,1.023,0c0.3,0.296,0.3,0.734,0,1.015c-3.564,3.636-3.564,9.378,0,13.012c0.3,0.296,0.3,0.726,0,1.019 C57.154,15.4,56.942,15.473,56.801,15.473z"/> <path fill="#2A59A9" d="M59.717,12.572c-0.221,0-0.377-0.07-0.523-0.221c-2.463-2.537-2.463-6.609,0-9.155 c0.303-0.29,0.736-0.29,1.019,0c0.292,0.296,0.292,0.725,0,1.018c-1.966,1.966-1.966,5.091,0,7.123 c0.292,0.288,0.292,0.726,0,1.015C60.142,12.501,59.93,12.572,59.717,12.572z"/> <path fill="#2A59A9" d="M66.469,12.572c0.215,0,0.371-0.07,0.527-0.221c2.459-2.537,2.459-6.609,0-9.155 c-0.313-0.29-0.74-0.29-1.023,0c-0.313,0.296-0.313,0.725,0,1.018c1.961,1.966,1.961,5.091,0,7.123 c-0.313,0.288-0.313,0.726,0,1.015C66.115,12.501,66.327,12.572,66.469,12.572z"/> <path fill="#2A59A9" d="M69.455,15.473c0.212,0,0.354-0.073,0.51-0.214c4.063-4.215,4.063-10.831,0-15.046 c-0.298-0.284-0.722-0.284-1.023,0c-0.293,0.296-0.293,0.734,0,1.015c3.571,3.636,3.571,9.378,0,13.012 c-0.293,0.296-0.293,0.726,0,1.019C69.098,15.4,69.243,15.473,69.455,15.473z"/> </g> </g>  </g><g id="ProcessOnG1255" transform="matrix(1.0,0.0,0.0,1.0,-20.0,70.75)"><text id="ProcessOnText1256" fill="#000000" font-size="13" x="57.0" y="13.325" font-family="微软雅黑" font-weight="normal" font-style="normal" text-decoration="none" family="微软雅黑" text-anchor="middle" size="13">物联设备</text></g></g><g id="ProcessOnG1257" transform="matrix(1.0,0.0,0.0,1.0,855.421162988833,457.0)" opacity="1.0"><path id="ProcessOnPath1258" d="M17.303548068198616 0.0L34.60709613639723 17.303548068198616L23.186754411386147 17.303548068198616L23.186754411386147 31.61602840168402L34.60709613639723 31.61602840168402L17.303548068198616 48.919576469882635L0.0 31.61602840168402L11.420341725011086 31.61602840168402L11.420341725011086 17.303548068198616L0.0 17.303548068198616L17.303548068198616 0.0Z" stroke="#66b2ff" stroke-width="2.0" stroke-dasharray="none" opacity="1.0" fill="#cce5ff"/></g><g id="ProcessOnG1259" transform="matrix(1.0,0.0,0.0,1.0,445.42116298883303,457.0)" opacity="1.0"><path id="ProcessOnPath1260" d="M17.303548068198616 0.0L34.60709613639723 17.303548068198616L23.186754411386147 17.303548068198616L23.186754411386147 31.61602840168402L34.60709613639723 31.61602840168402L17.303548068198616 48.919576469882635L0.0 31.61602840168402L11.420341725011086 31.61602840168402L11.420341725011086 17.303548068198616L0.0 17.303548068198616L17.303548068198616 0.0Z" stroke="#66b2ff" stroke-width="2.0" stroke-dasharray="none" opacity="1.0" fill="#cce5ff"/></g><g id="ProcessOnG1261" transform="matrix(1.0,0.0,0.0,1.0,842.8666648864746,677.2746024459345)" opacity="1.0"><path id="ProcessOnPath1262" d="M0.0 4.0Q0.0 0.0 4.0 0.0L83.48332977294922 0.0Q87.48332977294922 0.0 87.48332977294922 4.0L87.48332977294922 18.75Q87.48332977294922 22.75 83.48332977294922 22.75L4.0 22.75Q0.0 22.75 0.0 18.75Z" stroke="#66b2ff" stroke-width="2.0" stroke-dasharray="none" opacity="1.0" fill="#66b2ff"/><g id="ProcessOnG1263" transform="matrix(1.0,0.0,0.0,1.0,10.0,3.875)"><text id="ProcessOnText1264" fill="#000000" font-size="12" x="32.74166488647461" y="12.3" font-family="微软雅黑" font-weight="normal" font-style="normal" text-decoration="none" family="微软雅黑" text-anchor="middle" size="12">spark</text></g></g><g id="ProcessOnG1265" transform="matrix(1.0,0.0,0.0,1.0,842.8666648864746,758.9317134291232)" opacity="1.0"><path id="ProcessOnPath1266" d="M0.0 4.0Q0.0 0.0 4.0 0.0L83.48332977294922 0.0Q87.48332977294922 0.0 87.48332977294922 4.0L87.48332977294922 22.734187410927348Q87.48332977294922 26.734187410927348 83.48332977294922 26.734187410927348L4.0 26.734187410927348Q0.0 26.734187410927348 0.0 22.734187410927348Z" stroke="#66b2ff" stroke-width="2.0" stroke-dasharray="none" opacity="1.0" fill="#66b2ff"/><g id="ProcessOnG1267" transform="matrix(1.0,0.0,0.0,1.0,10.0,-1.6329062945363262)"><text id="ProcessOnText1268" fill="#000000" font-size="12" x="32.74166488647461" y="12.3" font-family="微软雅黑" font-weight="normal" font-style="normal" text-decoration="none" family="微软雅黑" text-anchor="middle" size="12">logstash、</text><text id="ProcessOnText1269" fill="#000000" font-size="12" x="32.74166488647461" y="27.3" font-family="微软雅黑" font-weight="normal" font-style="normal" text-decoration="none" family="微软雅黑" text-anchor="middle" size="12">kafka</text></g></g><g id="ProcessOnG1270" transform="matrix(1.0,0.0,0.0,1.0,798.6704017413155,857.8131692601692)" opacity="1.0"><path id="ProcessOnPath1271" d="M0.0 0.0L131.67959291810837 0.0L131.67959291810837 79.77162624180778L0.0 79.77162624180778Z" stroke="#66b2ff" stroke-width="2.0" stroke-dasharray="none" opacity="1.0" fill="#e5e5e5"/><g id="ProcessOnG1272" transform="matrix(1.0,0.0,0.0,1.0,10.0,0.0)"><text id="ProcessOnText1273" fill="#000000" font-size="12" x="0.0" y="12.3" font-family="微软雅黑" font-weight="normal" font-style="normal" text-decoration="none" family="微软雅黑" text-anchor="start" size="12">大数据存储</text></g></g><g id="ProcessOnG1274" transform="matrix(1.0,0.0,0.0,1.0,811.0664518751948,883.5296704153845)" opacity="1.0"><path id="ProcessOnPath1275" d="M0.0 4.0Q0.0 0.0 4.0 0.0L102.88749265034949 0.0Q106.88749265034949 0.0 106.88749265034949 4.0L106.88749265034949 17.588684966533265Q106.88749265034949 21.588684966533265 102.88749265034949 21.588684966533265L4.0 21.588684966533265Q0.0 21.588684966533265 0.0 17.588684966533265Z" stroke="#66b2ff" stroke-width="2.0" stroke-dasharray="none" opacity="1.0" fill="#66b2ff"/><g id="ProcessOnG1276" transform="matrix(1.0,0.0,0.0,1.0,10.0,3.2943424832666324)"><text id="ProcessOnText1277" fill="#000000" font-size="12" x="42.44374632517474" y="12.3" font-family="微软雅黑" font-weight="normal" font-style="normal" text-decoration="none" family="微软雅黑" text-anchor="middle" size="12">HBase</text></g></g><g id="ProcessOnG1278" transform="matrix(1.0,0.0,0.0,1.0,811.0664518751948,909.5296704153845)" opacity="1.0"><path id="ProcessOnPath1279" d="M0.0 4.0Q0.0 0.0 4.0 0.0L102.88749265034949 0.0Q106.88749265034949 0.0 106.88749265034949 4.0L106.88749265034949 17.588684966533265Q106.88749265034949 21.588684966533265 102.88749265034949 21.588684966533265L4.0 21.588684966533265Q0.0 21.588684966533265 0.0 17.588684966533265Z" stroke="#66b2ff" stroke-width="2.0" stroke-dasharray="none" opacity="1.0" fill="#66b2ff"/><g id="ProcessOnG1280" transform="matrix(1.0,0.0,0.0,1.0,10.0,3.2943424832666324)"><text id="ProcessOnText1281" fill="#000000" font-size="12" x="42.44374632517474" y="12.3" font-family="微软雅黑" font-weight="normal" font-style="normal" text-decoration="none" family="微软雅黑" text-anchor="middle" size="12">HDFS</text></g></g><g id="ProcessOnG1282" transform="matrix(1.0,0.0,0.0,1.0,183.71665954589844,959.1976890787666)" opacity="1.0"><path id="ProcessOnPath1283" d="M0.0 0.0L762.2833404541016 0.0L762.2833404541016 68.80231092123336L0.0 68.80231092123336Z" stroke="#66b2ff" stroke-width="2.0" stroke-dasharray="none" opacity="1.0" fill="#e5e5e5"/></g><g id="ProcessOnG1284" transform="matrix(1.0,0.0,0.0,1.0,128.21665954589844,959.1976890787666)" opacity="1.0"><path id="ProcessOnPath1285" d="M47.0 0.0Q42.3 0.0 42.3 5.580231092123336L42.3 22.320924368493344Q42.3 27.90115546061668 25.0 27.90115546061668Q42.3 27.90115546061668 42.3 33.48138655274001L42.3 50.22207982911002Q42.3 55.80231092123336 47.0 55.80231092123336" stroke="#323232" stroke-width="2.0" stroke-dasharray="none" opacity="1.0" fill="none"/><path id="ProcessOnPath1286" d="M0.0 0.0L47.0 0.0L47.0 55.80231092123336L0.0 55.80231092123336Z" stroke="none" stroke-width="0.0" stroke-dasharray="none" opacity="1.0" fill="none"/><g id="ProcessOnG1287" transform="matrix(1.0,0.0,0.0,1.0,0.0,11.651155460616678)"><text id="ProcessOnText1288" fill="#000000" font-size="13" x="18.0" y="13.325" font-family="微软雅黑" font-weight="normal" font-style="normal" text-decoration="none" family="微软雅黑" text-anchor="end" size="13">容</text><text id="ProcessOnText1289" fill="#000000" font-size="13" x="18.0" y="29.575" font-family="微软雅黑" font-weight="normal" font-style="normal" text-decoration="none" family="微软雅黑" text-anchor="end" size="13">器</text></g></g><g id="ProcessOnG1290" transform="matrix(1.0,0.0,0.0,1.0,208.06645187519484,996.0)" opacity="1.0"><path id="ProcessOnPath1291" d="M0.0 4.0Q0.0 0.0 4.0 0.0L709.5837557955088 0.0Q713.5837557955088 0.0 713.5837557955088 4.0L713.5837557955088 20.824878402979493Q713.5837557955088 24.824878402979493 709.5837557955088 24.824878402979493L4.0 24.824878402979493Q0.0 24.824878402979493 0.0 20.824878402979493Z" stroke="#66b2ff" stroke-width="2.0" stroke-dasharray="none" opacity="1.0" fill="#66b2ff"/><g id="ProcessOnG1292" transform="matrix(1.0,0.0,0.0,1.0,10.0,4.912439201489747)"><text id="ProcessOnText1293" fill="#000000" font-size="12" x="345.7918778977544" y="12.3" font-family="微软雅黑" font-weight="normal" font-style="normal" text-decoration="none" family="微软雅黑" text-anchor="middle" size="12">docker引擎</text></g></g><g id="ProcessOnG1294" transform="matrix(1.0,0.0,0.0,1.0,210.24357342043592,962.7479000138908)" opacity="1.0"><path id="ProcessOnPath1295" d="M0.0 4.0Q0.0 0.0 4.0 0.0L212.75642657956408 0.0Q216.75642657956408 0.0 216.75642657956408 4.0L216.75642657956408 22.41885287980722Q216.75642657956408 26.41885287980722 212.75642657956408 26.41885287980722L4.0 26.41885287980722Q0.0 26.41885287980722 0.0 22.41885287980722Z" stroke="#66b2ff" stroke-width="2.0" stroke-dasharray="none" opacity="1.0" fill="#66b2ff"/><g id="ProcessOnG1296" transform="matrix(1.0,0.0,0.0,1.0,10.0,5.709426439903609)"><text id="ProcessOnText1297" fill="#000000" font-size="12" x="97.37821328978204" y="12.3" font-family="微软雅黑" font-weight="normal" font-style="normal" text-decoration="none" family="微软雅黑" text-anchor="middle" size="12">容器编排</text></g></g><g id="ProcessOnG1298" transform="matrix(1.0,0.0,0.0,1.0,449.64514003268505,962.747900013891)" opacity="1.0"><path id="ProcessOnPath1299" d="M0.0 4.0Q0.0 0.0 4.0 0.0L226.42637948052834 0.0Q230.42637948052834 0.0 230.42637948052834 4.0L230.42637948052834 22.418852879806764Q230.42637948052834 26.418852879806764 226.42637948052834 26.418852879806764L4.0 26.418852879806764Q0.0 26.418852879806764 0.0 22.418852879806764Z" stroke="#66b2ff" stroke-width="2.0" stroke-dasharray="none" opacity="1.0" fill="#66b2ff"/><g id="ProcessOnG1300" transform="matrix(1.0,0.0,0.0,1.0,10.0,5.709426439903382)"><text id="ProcessOnText1301" fill="#000000" font-size="12" x="104.21318974026417" y="12.3" font-family="微软雅黑" font-weight="normal" font-style="normal" text-decoration="none" family="微软雅黑" text-anchor="middle" size="12">资源调度</text></g></g><g id="ProcessOnG1302" transform="matrix(1.0,0.0,0.0,1.0,705.0,962.747900013891)" opacity="1.0"><path id="ProcessOnPath1303" d="M0.0 4.0Q0.0 0.0 4.0 0.0L208.95394452554433 0.0Q212.95394452554433 0.0 212.95394452554433 4.0L212.95394452554433 22.418852879806764Q212.95394452554433 26.418852879806764 208.95394452554433 26.418852879806764L4.0 26.418852879806764Q0.0 26.418852879806764 0.0 22.418852879806764Z" stroke="#66b2ff" stroke-width="2.0" stroke-dasharray="none" opacity="1.0" fill="#66b2ff"/><g id="ProcessOnG1304" transform="matrix(1.0,0.0,0.0,1.0,10.0,5.709426439903382)"><text id="ProcessOnText1305" fill="#000000" font-size="12" x="95.47697226277216" y="12.3" font-family="微软雅黑" font-weight="normal" font-style="normal" text-decoration="none" family="微软雅黑" text-anchor="middle" size="12">集群管理</text></g></g></g></g></svg>