<svg xmlns="http://www.w3.org/2000/svg" xmlns:xlink="http://www.w3.org/1999/xlink" id="processonSvg1000" viewBox="145.0 242.12915802001953 1110.0 483.2354202270508" width="1110.0" height="483.2354202270508"><defs id="ProcessOnDefs1001"><pattern id="ProcessOnPattern1169" patternUnits="userSpaceOnUse" width="35.04985590543269" height="37.99068789793696"><image id="ProcessOnImage1170"/></pattern><pattern id="ProcessOnPattern1181" patternUnits="userSpaceOnUse" width="34.500003814697266" height="40.88228988647461"><image id="ProcessOnImage1182"/></pattern><marker id="ProcessOnMarker1228" markerUnits="userSpaceOnUse" orient="auto" markerWidth="16.23606797749979" markerHeight="10.550836550532098" viewBox="-1.0 -1.3763819204711736 16.23606797749979 10.550836550532098" refX="-1.0" refY="3.8990363547948754"><path id="ProcessOnPath1229" d="M12.0 3.8990363547948754L0.0 7.798072709589751V0.0Z" stroke="#b8b8b8" stroke-width="2.0" fill="#b8b8b8" transform="matrix(1.0,0.0,0.0,1.0,0.0,0.0)"/></marker></defs><g id="ProcessOnG1002"><path id="ProcessOnPath1003" d="M145.0 242.12915802001953H1255.0V725.3645782470703H145.0V242.12915802001953Z" fill="none"/><g id="ProcessOnG1004"><g id="ProcessOnG1005" transform="matrix(1.0,0.0,0.0,1.0,355.4291572570801,345.4000015258789)" opacity="1.0"><path id="ProcessOnPath1006" d="M0.0 0.0L695.0 0.0L695.0 163.5645751953125L0.0 163.5645751953125Z" stroke="#3399ff" stroke-width="2.0" stroke-dasharray="none" opacity="1.0" fill="#ffffff"/></g><g id="ProcessOnG1007" transform="matrix(1.0,0.0,0.0,1.0,354.9874687194824,507.9645767211914)" opacity="1.0"><path id="ProcessOnPath1008" d="M0.0 0.0L695.0 0.0L695.0 106.4000015258789L0.0 106.4000015258789Z" stroke="#3399ff" stroke-width="2.0" stroke-dasharray="none" opacity="1.0" fill="#ffffff"/></g><g id="ProcessOnG1009" transform="matrix(1.0,0.0,0.0,1.0,243.45831298828125,275.3645782470703)" opacity="1.0"><path id="ProcessOnPath1010" d="M0.0 0.0L100.0 0.0L100.0 70.0L0.0 70.0Z" stroke="#66b2ff" stroke-width="2.0" stroke-dasharray="none" opacity="1.0" fill="#66b2ff"/><g id="ProcessOnG1011" transform="matrix(1.0,0.0,0.0,1.0,10.0,18.75)"><text id="ProcessOnText1012" fill="#000000" font-size="13" x="39.0" y="13.325" font-family="微软雅黑" font-weight="normal" font-style="normal" text-decoration="none" family="微软雅黑" text-anchor="middle" size="13">企业管理层</text><text id="ProcessOnText1013" fill="#000000" font-size="13" x="39.0" y="29.575" font-family="微软雅黑" font-weight="normal" font-style="normal" text-decoration="none" family="微软雅黑" text-anchor="middle" size="13">ERP</text></g></g><g id="ProcessOnG1014" transform="matrix(1.0,0.0,0.0,1.0,243.45831298828125,347.0)" opacity="1.0"><path id="ProcessOnPath1015" d="M0.0 0.0L100.0 0.0L100.0 158.3645782470703L0.0 158.3645782470703Z" stroke="#66ffff" stroke-width="2.0" stroke-dasharray="none" opacity="1.0" fill="#66ffff"/><g id="ProcessOnG1016" transform="matrix(1.0,0.0,0.0,1.0,10.0,62.932289123535156)"><text id="ProcessOnText1017" fill="#000000" font-size="13" x="39.0" y="13.325" font-family="微软雅黑" font-weight="normal" font-style="normal" text-decoration="none" family="微软雅黑" text-anchor="middle" size="13">生产执行层</text><text id="ProcessOnText1018" fill="#000000" font-size="13" x="39.0" y="29.575" font-family="微软雅黑" font-weight="normal" font-style="normal" text-decoration="none" family="微软雅黑" text-anchor="middle" size="13">MES</text></g></g><g id="ProcessOnG1019" transform="matrix(1.0,0.0,0.0,1.0,243.45831298828125,505.3645782470703)" opacity="1.0"><path id="ProcessOnPath1020" d="M0.0 0.0L100.0 0.0L100.0 108.76457977294922L0.0 108.76457977294922Z" stroke="#00ff00" stroke-width="2.0" stroke-dasharray="none" opacity="1.0" fill="#33ff99"/><g id="ProcessOnG1021" transform="matrix(1.0,0.0,0.0,1.0,10.0,38.13228988647461)"><text id="ProcessOnText1022" fill="#000000" font-size="13" x="39.0" y="13.325" font-family="微软雅黑" font-weight="normal" font-style="normal" text-decoration="none" family="微软雅黑" text-anchor="middle" size="13">过程控制层</text><text id="ProcessOnText1023" fill="#000000" font-size="13" x="39.0" y="29.575" font-family="微软雅黑" font-weight="normal" font-style="normal" text-decoration="none" family="微软雅黑" text-anchor="middle" size="13">APC</text></g></g><g id="ProcessOnG1024" transform="matrix(1.0,0.0,0.0,1.0,243.45831298828125,614.3645782470703)" opacity="1.0"><path id="ProcessOnPath1025" d="M0.0 0.0L100.0 0.0L100.0 91.0L0.0 91.0Z" stroke="#ccff99" stroke-width="2.0" stroke-dasharray="none" opacity="1.0" fill="#b3ff66"/><g id="ProcessOnG1026" transform="matrix(1.0,0.0,0.0,1.0,10.0,29.25)"><text id="ProcessOnText1027" fill="#000000" font-size="13" x="39.0" y="13.325" font-family="微软雅黑" font-weight="normal" font-style="normal" text-decoration="none" family="微软雅黑" text-anchor="middle" size="13">设备/控制层</text><text id="ProcessOnText1028" fill="#000000" font-size="13" x="39.0" y="29.575" font-family="微软雅黑" font-weight="normal" font-style="normal" text-decoration="none" family="微软雅黑" text-anchor="middle" size="13">DCS</text></g></g><g id="ProcessOnG1029" transform="matrix(1.0,0.0,0.0,1.0,355.45831298828125,275.0)" opacity="1.0"><path id="ProcessOnPath1030" d="M0.0 0.0L695.0 0.0L695.0 70.0L0.0 70.0Z" stroke="#3399ff" stroke-width="2.0" stroke-dasharray="none" opacity="1.0" fill="#ffffff"/></g><g id="ProcessOnG1031" transform="matrix(1.0,0.0,0.0,1.0,424.45831298828125,299.8645782470703)" opacity="1.0"><path id="ProcessOnPath1032" d="M0.0 4.0Q0.0 0.0 4.0 0.0L69.0 0.0Q73.0 0.0 73.0 4.0L73.0 23.0Q73.0 27.0 69.0 27.0L4.0 27.0Q0.0 27.0 0.0 23.0Z" stroke="#b8b8b8" stroke-width="2.0" stroke-dasharray="none" opacity="1.0" fill="#ffffff"/><g id="ProcessOnG1033" transform="matrix(1.0,0.0,0.0,1.0,10.0,5.375)"><text id="ProcessOnText1034" fill="#000000" font-size="13" x="25.5" y="13.325" font-family="微软雅黑" font-weight="normal" font-style="normal" text-decoration="none" family="微软雅黑" text-anchor="middle" size="13">ERP</text></g></g><g id="ProcessOnG1035" transform="matrix(1.0,0.0,0.0,1.0,524.4583129882812,299.8645782470703)" opacity="1.0"><path id="ProcessOnPath1036" d="M0.0 4.0Q0.0 0.0 4.0 0.0L69.0 0.0Q73.0 0.0 73.0 4.0L73.0 23.0Q73.0 27.0 69.0 27.0L4.0 27.0Q0.0 27.0 0.0 23.0Z" stroke="#b8b8b8" stroke-width="2.0" stroke-dasharray="none" opacity="1.0" fill="#ffffff"/><g id="ProcessOnG1037" transform="matrix(1.0,0.0,0.0,1.0,10.0,5.375)"><text id="ProcessOnText1038" fill="#000000" font-size="13" x="25.5" y="13.325" font-family="微软雅黑" font-weight="normal" font-style="normal" text-decoration="none" family="微软雅黑" text-anchor="middle" size="13">MRP</text></g></g><g id="ProcessOnG1039" transform="matrix(1.0,0.0,0.0,1.0,621.4583129882812,299.8645782470703)" opacity="1.0"><path id="ProcessOnPath1040" d="M0.0 4.0Q0.0 0.0 4.0 0.0L69.0 0.0Q73.0 0.0 73.0 4.0L73.0 23.0Q73.0 27.0 69.0 27.0L4.0 27.0Q0.0 27.0 0.0 23.0Z" stroke="#b8b8b8" stroke-width="2.0" stroke-dasharray="none" opacity="1.0" fill="#ffffff"/><g id="ProcessOnG1041" transform="matrix(1.0,0.0,0.0,1.0,10.0,5.375)"><text id="ProcessOnText1042" fill="#000000" font-size="13" x="25.5" y="13.325" font-family="微软雅黑" font-weight="normal" font-style="normal" text-decoration="none" family="微软雅黑" text-anchor="middle" size="13">PLM</text></g></g><g id="ProcessOnG1043" transform="matrix(1.0,0.0,0.0,1.0,722.4583129882812,299.8645782470703)" opacity="1.0"><path id="ProcessOnPath1044" d="M0.0 4.0Q0.0 0.0 4.0 0.0L69.0 0.0Q73.0 0.0 73.0 4.0L73.0 23.0Q73.0 27.0 69.0 27.0L4.0 27.0Q0.0 27.0 0.0 23.0Z" stroke="#b8b8b8" stroke-width="2.0" stroke-dasharray="none" opacity="1.0" fill="#ffffff"/><g id="ProcessOnG1045" transform="matrix(1.0,0.0,0.0,1.0,10.0,5.375)"><text id="ProcessOnText1046" fill="#000000" font-size="13" x="25.5" y="13.325" font-family="微软雅黑" font-weight="normal" font-style="normal" text-decoration="none" family="微软雅黑" text-anchor="middle" size="13">CRM</text></g></g><g id="ProcessOnG1047" transform="matrix(1.0,0.0,0.0,1.0,819.4583129882812,299.8645782470703)" opacity="1.0"><path id="ProcessOnPath1048" d="M0.0 4.0Q0.0 0.0 4.0 0.0L69.0 0.0Q73.0 0.0 73.0 4.0L73.0 23.0Q73.0 27.0 69.0 27.0L4.0 27.0Q0.0 27.0 0.0 23.0Z" stroke="#b8b8b8" stroke-width="2.0" stroke-dasharray="none" opacity="1.0" fill="#ffffff"/><g id="ProcessOnG1049" transform="matrix(1.0,0.0,0.0,1.0,10.0,5.375)"><text id="ProcessOnText1050" fill="#000000" font-size="13" x="25.5" y="13.325" font-family="微软雅黑" font-weight="normal" font-style="normal" text-decoration="none" family="微软雅黑" text-anchor="middle" size="13">SCM</text></g></g><g id="ProcessOnG1051" transform="matrix(1.0,0.0,0.0,1.0,911.4583129882812,299.8645782470703)" opacity="1.0"><path id="ProcessOnPath1052" d="M0.0 4.0Q0.0 0.0 4.0 0.0L69.0 0.0Q73.0 0.0 73.0 4.0L73.0 23.0Q73.0 27.0 69.0 27.0L4.0 27.0Q0.0 27.0 0.0 23.0Z" stroke="#b8b8b8" stroke-width="2.0" stroke-dasharray="none" opacity="1.0" fill="#ffffff"/><g id="ProcessOnG1053" transform="matrix(1.0,0.0,0.0,1.0,10.0,5.375)"><text id="ProcessOnText1054" fill="#000000" font-size="13" x="25.5" y="13.325" font-family="微软雅黑" font-weight="normal" font-style="normal" text-decoration="none" family="微软雅黑" text-anchor="middle" size="13">OA</text></g></g><g id="ProcessOnG1055" transform="matrix(1.0,0.0,0.0,1.0,378.45831298828125,364.4000015258789)" opacity="1.0"><path id="ProcessOnPath1056" d="M0.0 4.0Q0.0 0.0 4.0 0.0L85.94168853759766 0.0Q89.94168853759766 0.0 89.94168853759766 4.0L89.94168853759766 24.964576721191406Q89.94168853759766 28.964576721191406 85.94168853759766 28.964576721191406L4.0 28.964576721191406Q0.0 28.964576721191406 0.0 24.964576721191406Z" stroke="#b8b8b8" stroke-width="2.0" stroke-dasharray="none" opacity="1.0" fill="#ffffff"/><g id="ProcessOnG1057" transform="matrix(1.0,0.0,0.0,1.0,10.0,6.357288360595703)"><text id="ProcessOnText1058" fill="#000000" font-size="13" x="33.97084426879883" y="13.325" font-family="微软雅黑" font-weight="normal" font-style="normal" text-decoration="none" family="微软雅黑" text-anchor="middle" size="13">计划管理</text></g></g><g id="ProcessOnG1059" transform="matrix(1.0,0.0,0.0,1.0,378.45831298828125,404.4000015258789)" opacity="1.0"><path id="ProcessOnPath1060" d="M0.0 4.0Q0.0 0.0 4.0 0.0L85.94168853759766 0.0Q89.94168853759766 0.0 89.94168853759766 4.0L89.94168853759766 24.964576721191406Q89.94168853759766 28.964576721191406 85.94168853759766 28.964576721191406L4.0 28.964576721191406Q0.0 28.964576721191406 0.0 24.964576721191406Z" stroke="#b8b8b8" stroke-width="2.0" stroke-dasharray="none" opacity="1.0" fill="#ffffff"/><g id="ProcessOnG1061" transform="matrix(1.0,0.0,0.0,1.0,10.0,6.357288360595703)"><text id="ProcessOnText1062" fill="#000000" font-size="13" x="33.97084426879883" y="13.325" font-family="微软雅黑" font-weight="normal" font-style="normal" text-decoration="none" family="微软雅黑" text-anchor="middle" size="13">设备管理</text></g></g><g id="ProcessOnG1063" transform="matrix(1.0,0.0,0.0,1.0,488.45831298828125,364.4000015258789)" opacity="1.0"><path id="ProcessOnPath1064" d="M0.0 4.0Q0.0 0.0 4.0 0.0L85.94168853759766 0.0Q89.94168853759766 0.0 89.94168853759766 4.0L89.94168853759766 24.964576721191406Q89.94168853759766 28.964576721191406 85.94168853759766 28.964576721191406L4.0 28.964576721191406Q0.0 28.964576721191406 0.0 24.964576721191406Z" stroke="#b8b8b8" stroke-width="2.0" stroke-dasharray="none" opacity="1.0" fill="#ffffff"/><g id="ProcessOnG1065" transform="matrix(1.0,0.0,0.0,1.0,10.0,6.357288360595703)"><text id="ProcessOnText1066" fill="#000000" font-size="13" x="33.97084426879883" y="13.325" font-family="微软雅黑" font-weight="normal" font-style="normal" text-decoration="none" family="微软雅黑" text-anchor="middle" size="13">质量管理</text></g></g><g id="ProcessOnG1067" transform="matrix(1.0,0.0,0.0,1.0,488.45831298828125,404.4000015258789)" opacity="1.0"><path id="ProcessOnPath1068" d="M0.0 4.0Q0.0 0.0 4.0 0.0L85.94168853759766 0.0Q89.94168853759766 0.0 89.94168853759766 4.0L89.94168853759766 24.964576721191406Q89.94168853759766 28.964576721191406 85.94168853759766 28.964576721191406L4.0 28.964576721191406Q0.0 28.964576721191406 0.0 24.964576721191406Z" stroke="#b8b8b8" stroke-width="2.0" stroke-dasharray="none" opacity="1.0" fill="#ffffff"/><g id="ProcessOnG1069" transform="matrix(1.0,0.0,0.0,1.0,10.0,6.357288360595703)"><text id="ProcessOnText1070" fill="#000000" font-size="13" x="33.97084426879883" y="13.325" font-family="微软雅黑" font-weight="normal" font-style="normal" text-decoration="none" family="微软雅黑" text-anchor="middle" size="13">物料管理</text></g></g><g id="ProcessOnG1071" transform="matrix(1.0,0.0,0.0,1.0,599.4583129882812,364.8822898864746)" opacity="1.0"><path id="ProcessOnPath1072" d="M0.0 4.0Q0.0 0.0 4.0 0.0L85.94168853759766 0.0Q89.94168853759766 0.0 89.94168853759766 4.0L89.94168853759766 24.964576721191406Q89.94168853759766 28.964576721191406 85.94168853759766 28.964576721191406L4.0 28.964576721191406Q0.0 28.964576721191406 0.0 24.964576721191406Z" stroke="#b8b8b8" stroke-width="2.0" stroke-dasharray="none" opacity="1.0" fill="#ffffff"/><g id="ProcessOnG1073" transform="matrix(1.0,0.0,0.0,1.0,10.0,6.357288360595703)"><text id="ProcessOnText1074" fill="#000000" font-size="13" x="33.97084426879883" y="13.325" font-family="微软雅黑" font-weight="normal" font-style="normal" text-decoration="none" family="微软雅黑" text-anchor="middle" size="13">物流管理</text></g></g><g id="ProcessOnG1075" transform="matrix(1.0,0.0,0.0,1.0,825.5166244506836,404.8822898864746)" opacity="1.0"><path id="ProcessOnPath1076" d="M0.0 4.0Q0.0 0.0 4.0 0.0L85.94168853759766 0.0Q89.94168853759766 0.0 89.94168853759766 4.0L89.94168853759766 24.964576721191406Q89.94168853759766 28.964576721191406 85.94168853759766 28.964576721191406L4.0 28.964576721191406Q0.0 28.964576721191406 0.0 24.964576721191406Z" stroke="#b8b8b8" stroke-width="2.0" stroke-dasharray="none" opacity="1.0" fill="#ffffff"/><g id="ProcessOnG1077" transform="matrix(1.0,0.0,0.0,1.0,10.0,6.357288360595703)"><text id="ProcessOnText1078" fill="#000000" font-size="13" x="33.97084426879883" y="13.325" font-family="微软雅黑" font-weight="normal" font-style="normal" text-decoration="none" family="微软雅黑" text-anchor="middle" size="13">人员管理</text></g></g><g id="ProcessOnG1079" transform="matrix(1.0,0.0,0.0,1.0,599.4583129882812,403.8822898864746)" opacity="1.0"><path id="ProcessOnPath1080" d="M0.0 4.0Q0.0 0.0 4.0 0.0L85.94168853759766 0.0Q89.94168853759766 0.0 89.94168853759766 4.0L89.94168853759766 24.964576721191406Q89.94168853759766 28.964576721191406 85.94168853759766 28.964576721191406L4.0 28.964576721191406Q0.0 28.964576721191406 0.0 24.964576721191406Z" stroke="#b8b8b8" stroke-width="2.0" stroke-dasharray="none" opacity="1.0" fill="#ffffff"/><g id="ProcessOnG1081" transform="matrix(1.0,0.0,0.0,1.0,10.0,6.357288360595703)"><text id="ProcessOnText1082" fill="#000000" font-size="13" x="33.97084426879883" y="13.325" font-family="微软雅黑" font-weight="normal" font-style="normal" text-decoration="none" family="微软雅黑" text-anchor="middle" size="13">能源管理</text></g></g><g id="ProcessOnG1083" transform="matrix(1.0,0.0,0.0,1.0,711.4583129882812,364.8822898864746)" opacity="1.0"><path id="ProcessOnPath1084" d="M0.0 4.0Q0.0 0.0 4.0 0.0L85.94168853759766 0.0Q89.94168853759766 0.0 89.94168853759766 4.0L89.94168853759766 24.964576721191406Q89.94168853759766 28.964576721191406 85.94168853759766 28.964576721191406L4.0 28.964576721191406Q0.0 28.964576721191406 0.0 24.964576721191406Z" stroke="#b8b8b8" stroke-width="2.0" stroke-dasharray="none" opacity="1.0" fill="#ffffff"/><g id="ProcessOnG1085" transform="matrix(1.0,0.0,0.0,1.0,10.0,6.357288360595703)"><text id="ProcessOnText1086" fill="#000000" font-size="13" x="33.97084426879883" y="13.325" font-family="微软雅黑" font-weight="normal" font-style="normal" text-decoration="none" family="微软雅黑" text-anchor="middle" size="13">文档管理</text></g></g><g id="ProcessOnG1087" transform="matrix(1.0,0.0,0.0,1.0,711.4583129882812,404.8822898864746)" opacity="1.0"><path id="ProcessOnPath1088" d="M0.0 4.0Q0.0 0.0 4.0 0.0L85.94168853759766 0.0Q89.94168853759766 0.0 89.94168853759766 4.0L89.94168853759766 24.964576721191406Q89.94168853759766 28.964576721191406 85.94168853759766 28.964576721191406L4.0 28.964576721191406Q0.0 28.964576721191406 0.0 24.964576721191406Z" stroke="#b8b8b8" stroke-width="2.0" stroke-dasharray="none" opacity="1.0" fill="#ffffff"/><g id="ProcessOnG1089" transform="matrix(1.0,0.0,0.0,1.0,10.0,6.357288360595703)"><text id="ProcessOnText1090" fill="#000000" font-size="13" x="33.97084426879883" y="13.325" font-family="微软雅黑" font-weight="normal" font-style="normal" text-decoration="none" family="微软雅黑" text-anchor="middle" size="13">看板管理</text></g></g><g id="ProcessOnG1091" transform="matrix(1.0,0.0,0.0,1.0,824.5166244506836,364.8822898864746)" opacity="1.0"><path id="ProcessOnPath1092" d="M0.0 4.0Q0.0 0.0 4.0 0.0L85.94168853759766 0.0Q89.94168853759766 0.0 89.94168853759766 4.0L89.94168853759766 24.964576721191406Q89.94168853759766 28.964576721191406 85.94168853759766 28.964576721191406L4.0 28.964576721191406Q0.0 28.964576721191406 0.0 24.964576721191406Z" stroke="#b8b8b8" stroke-width="2.0" stroke-dasharray="none" opacity="1.0" fill="#ffffff"/><g id="ProcessOnG1093" transform="matrix(1.0,0.0,0.0,1.0,10.0,6.357288360595703)"><text id="ProcessOnText1094" fill="#000000" font-size="13" x="33.97084426879883" y="13.325" font-family="微软雅黑" font-weight="normal" font-style="normal" text-decoration="none" family="微软雅黑" text-anchor="middle" size="13">报表管理</text></g></g><g id="ProcessOnG1095" transform="matrix(1.0,0.0,0.0,1.0,1122.400001525879,273.3645782470703)" opacity="1.0"><path id="ProcessOnPath1096" d="M0.0 0.0L43.599998474121094 0.0L43.599998474121094 432.0L0.0 432.0Z" stroke="#ffff99" stroke-width="2.0" stroke-dasharray="none" opacity="1.0" fill="#ffff66"/><g id="ProcessOnG1097" transform="matrix(1.0,0.0,0.0,1.0,10.0,175.375)"><text id="ProcessOnText1098" fill="#000000" font-size="13" x="10.799999237060547" y="13.325" font-family="微软雅黑" font-weight="normal" font-style="normal" text-decoration="none" family="微软雅黑" text-anchor="middle" size="13">大</text><text id="ProcessOnText1099" fill="#000000" font-size="13" x="10.799999237060547" y="29.575" font-family="微软雅黑" font-weight="normal" font-style="normal" text-decoration="none" family="微软雅黑" text-anchor="middle" size="13">数</text><text id="ProcessOnText1100" fill="#000000" font-size="13" x="10.799999237060547" y="45.825" font-family="微软雅黑" font-weight="normal" font-style="normal" text-decoration="none" family="微软雅黑" text-anchor="middle" size="13">据</text><text id="ProcessOnText1101" fill="#000000" font-size="13" x="10.799999237060547" y="62.075" font-family="微软雅黑" font-weight="normal" font-style="normal" text-decoration="none" family="微软雅黑" text-anchor="middle" size="13">分</text><text id="ProcessOnText1102" fill="#000000" font-size="13" x="10.799999237060547" y="78.325" font-family="微软雅黑" font-weight="normal" font-style="normal" text-decoration="none" family="微软雅黑" text-anchor="middle" size="13">析</text></g></g><g id="ProcessOnG1103" transform="matrix(1.0,0.0,0.0,1.0,355.4291572570801,614.3645782470703)" opacity="1.0"><path id="ProcessOnPath1104" d="M0.0 0.0L695.0 0.0L695.0 91.0L0.0 91.0Z" stroke="#3399ff" stroke-width="2.0" stroke-dasharray="none" opacity="1.0" fill="#ffffff"/><g id="ProcessOnG1105" transform="matrix(1.0,0.0,0.0,1.0,10.0,13.0)"><text id="ProcessOnText1106" fill="#000000" font-size="13" x="336.5" y="13.325" font-family="微软雅黑" font-weight="normal" font-style="normal" text-decoration="none" family="微软雅黑" text-anchor="middle" size="13"></text><text id="ProcessOnText1107" fill="#000000" font-size="13" x="336.5" y="29.575" font-family="微软雅黑" font-weight="normal" font-style="normal" text-decoration="none" family="微软雅黑" text-anchor="middle" size="13"></text><text id="ProcessOnText1108" fill="#000000" font-size="13" x="336.5" y="45.825" font-family="微软雅黑" font-weight="normal" font-style="normal" text-decoration="none" family="微软雅黑" text-anchor="middle" size="13"></text><text id="ProcessOnText1109" fill="#000000" font-size="13" x="336.5" y="62.075" font-family="微软雅黑" font-weight="normal" font-style="normal" text-decoration="none" family="微软雅黑" text-anchor="middle" size="13">DCS \ 化验分析 \ 智能终端 ......</text></g></g><g id="ProcessOnG1110" transform="matrix(1.0,0.0,0.0,1.0,1068.5910260008438,566.8401665893462)" opacity="1.0"><path id="ProcessOnPath1111" d="M0.0 0.0L40.27626098659342 0.0L40.27626098659342 138.52441165772416L0.0 138.52441165772416Z" stroke="#ffffff" stroke-width="2.0" stroke-dasharray="none" opacity="1.0" fill="#e5ccff"/><g id="ProcessOnG1112" transform="matrix(1.0,0.0,0.0,1.0,10.0,20.51220582886208)"><text id="ProcessOnText1113" fill="#000000" font-size="13" x="9.13813049329671" y="13.325" font-family="微软雅黑" font-weight="normal" font-style="normal" text-decoration="none" family="微软雅黑" text-anchor="middle" size="13">生</text><text id="ProcessOnText1114" fill="#000000" font-size="13" x="9.13813049329671" y="29.575" font-family="微软雅黑" font-weight="normal" font-style="normal" text-decoration="none" family="微软雅黑" text-anchor="middle" size="13">产</text><text id="ProcessOnText1115" fill="#000000" font-size="13" x="9.13813049329671" y="45.825" font-family="微软雅黑" font-weight="normal" font-style="normal" text-decoration="none" family="微软雅黑" text-anchor="middle" size="13">数</text><text id="ProcessOnText1116" fill="#000000" font-size="13" x="9.13813049329671" y="62.075" font-family="微软雅黑" font-weight="normal" font-style="normal" text-decoration="none" family="微软雅黑" text-anchor="middle" size="13">据</text><text id="ProcessOnText1117" fill="#000000" font-size="13" x="9.13813049329671" y="78.325" font-family="微软雅黑" font-weight="normal" font-style="normal" text-decoration="none" family="微软雅黑" text-anchor="middle" size="13">库</text><text id="ProcessOnText1118" fill="#000000" font-size="13" x="9.13813049329671" y="94.575" font-family="微软雅黑" font-weight="normal" font-style="normal" text-decoration="none" family="微软雅黑" text-anchor="middle" size="13"></text></g></g><g id="ProcessOnG1119" transform="matrix(1.0,0.0,0.0,1.0,1065.4583129882812,273.3645782470703)" opacity="1.0"><path id="ProcessOnPath1120" d="M0.0 0.0L46.54168701171875 0.0L46.54168701171875 140.2601390926152L0.0 140.2601390926152Z" stroke="#ffffff" stroke-width="2.0" stroke-dasharray="none" opacity="1.0" fill="#e5ccff"/><g id="ProcessOnG1121" transform="matrix(1.0,0.0,0.0,1.0,10.0,21.380069546307595)"><text id="ProcessOnText1122" fill="#000000" font-size="13" x="12.270843505859375" y="13.325" font-family="微软雅黑" font-weight="normal" font-style="normal" text-decoration="none" family="微软雅黑" text-anchor="middle" size="13">办</text><text id="ProcessOnText1123" fill="#000000" font-size="13" x="12.270843505859375" y="29.575" font-family="微软雅黑" font-weight="normal" font-style="normal" text-decoration="none" family="微软雅黑" text-anchor="middle" size="13">公</text><text id="ProcessOnText1124" fill="#000000" font-size="13" x="12.270843505859375" y="45.825" font-family="微软雅黑" font-weight="normal" font-style="normal" text-decoration="none" family="微软雅黑" text-anchor="middle" size="13">数</text><text id="ProcessOnText1125" fill="#000000" font-size="13" x="12.270843505859375" y="62.075" font-family="微软雅黑" font-weight="normal" font-style="normal" text-decoration="none" family="微软雅黑" text-anchor="middle" size="13">据</text><text id="ProcessOnText1126" fill="#000000" font-size="13" x="12.270843505859375" y="78.325" font-family="微软雅黑" font-weight="normal" font-style="normal" text-decoration="none" family="微软雅黑" text-anchor="middle" size="13">库</text><text id="ProcessOnText1127" fill="#000000" font-size="13" x="12.270843505859375" y="94.575" font-family="微软雅黑" font-weight="normal" font-style="normal" text-decoration="none" family="微软雅黑" text-anchor="middle" size="13"></text></g></g><g id="ProcessOnG1128" transform="matrix(1.0,0.0,0.0,1.0,1065.4583129882812,422.29295442476445)" opacity="1.0"><path id="ProcessOnPath1129" d="M0.0 0.0L46.54168701171875 0.0L46.54168701171875 132.50161115086658L0.0 132.50161115086658Z" stroke="#ffffff" stroke-width="2.0" stroke-dasharray="none" opacity="1.0" fill="#e5ccff"/><g id="ProcessOnG1130" transform="matrix(1.0,0.0,0.0,1.0,10.0,17.50080557543329)"><text id="ProcessOnText1131" fill="#000000" font-size="13" x="12.270843505859375" y="13.325" font-family="微软雅黑" font-weight="normal" font-style="normal" text-decoration="none" family="微软雅黑" text-anchor="middle" size="13">视</text><text id="ProcessOnText1132" fill="#000000" font-size="13" x="12.270843505859375" y="29.575" font-family="微软雅黑" font-weight="normal" font-style="normal" text-decoration="none" family="微软雅黑" text-anchor="middle" size="13">频</text><text id="ProcessOnText1133" fill="#000000" font-size="13" x="12.270843505859375" y="45.825" font-family="微软雅黑" font-weight="normal" font-style="normal" text-decoration="none" family="微软雅黑" text-anchor="middle" size="13">数</text><text id="ProcessOnText1134" fill="#000000" font-size="13" x="12.270843505859375" y="62.075" font-family="微软雅黑" font-weight="normal" font-style="normal" text-decoration="none" family="微软雅黑" text-anchor="middle" size="13">据</text><text id="ProcessOnText1135" fill="#000000" font-size="13" x="12.270843505859375" y="78.325" font-family="微软雅黑" font-weight="normal" font-style="normal" text-decoration="none" family="微软雅黑" text-anchor="middle" size="13">库</text><text id="ProcessOnText1136" fill="#000000" font-size="13" x="12.270843505859375" y="94.575" font-family="微软雅黑" font-weight="normal" font-style="normal" text-decoration="none" family="微软雅黑" text-anchor="middle" size="13"></text></g></g><g id="ProcessOnG1137" transform="matrix(1.0,0.0,0.0,1.0,369.45831298828125,569.0)" opacity="1.0"><path id="ProcessOnPath1138" d="M0.0 4.0Q0.0 0.0 4.0 0.0L85.94168853759766 0.0Q89.94168853759766 0.0 89.94168853759766 4.0L89.94168853759766 24.964576721191406Q89.94168853759766 28.964576721191406 85.94168853759766 28.964576721191406L4.0 28.964576721191406Q0.0 28.964576721191406 0.0 24.964576721191406Z" stroke="#b8b8b8" stroke-width="2.0" stroke-dasharray="none" opacity="1.0" fill="#ffffff"/><g id="ProcessOnG1139" transform="matrix(1.0,0.0,0.0,1.0,10.0,6.357288360595703)"><text id="ProcessOnText1140" fill="#000000" font-size="13" x="33.97084426879883" y="13.325" font-family="微软雅黑" font-weight="normal" font-style="normal" text-decoration="none" family="微软雅黑" text-anchor="middle" size="13">冶金数模</text></g></g><g id="ProcessOnG1141" transform="matrix(1.0,0.0,0.0,1.0,478.45831298828125,569.0)" opacity="1.0"><path id="ProcessOnPath1142" d="M0.0 4.0Q0.0 0.0 4.0 0.0L85.94168853759766 0.0Q89.94168853759766 0.0 89.94168853759766 4.0L89.94168853759766 24.964576721191406Q89.94168853759766 28.964576721191406 85.94168853759766 28.964576721191406L4.0 28.964576721191406Q0.0 28.964576721191406 0.0 24.964576721191406Z" stroke="#b8b8b8" stroke-width="2.0" stroke-dasharray="none" opacity="1.0" fill="#ffffff"/><g id="ProcessOnG1143" transform="matrix(1.0,0.0,0.0,1.0,10.0,6.357288360595703)"><text id="ProcessOnText1144" fill="#000000" font-size="13" x="33.97084426879883" y="13.325" font-family="微软雅黑" font-weight="normal" font-style="normal" text-decoration="none" family="微软雅黑" text-anchor="middle" size="13">原料策略</text></g></g><g id="ProcessOnG1145" transform="matrix(1.0,0.0,0.0,1.0,586.4583129882812,569.0)" opacity="1.0"><path id="ProcessOnPath1146" d="M0.0 4.0Q0.0 0.0 4.0 0.0L107.14167785644531 0.0Q111.14167785644531 0.0 111.14167785644531 4.0L111.14167785644531 24.964576721191406Q111.14167785644531 28.964576721191406 107.14167785644531 28.964576721191406L4.0 28.964576721191406Q0.0 28.964576721191406 0.0 24.964576721191406Z" stroke="#b8b8b8" stroke-width="2.0" stroke-dasharray="none" opacity="1.0" fill="#ffffff"/><g id="ProcessOnG1147" transform="matrix(1.0,0.0,0.0,1.0,10.0,6.357288360595703)"><text id="ProcessOnText1148" fill="#000000" font-size="13" x="44.570838928222656" y="13.325" font-family="微软雅黑" font-weight="normal" font-style="normal" text-decoration="none" family="微软雅黑" text-anchor="middle" size="13">热力学数据库</text></g></g><g id="ProcessOnG1149" transform="matrix(1.0,0.0,0.0,1.0,717.4583129882812,569.0)" opacity="1.0"><path id="ProcessOnPath1150" d="M0.0 4.0Q0.0 0.0 4.0 0.0L89.14167785644531 0.0Q93.14167785644531 0.0 93.14167785644531 4.0L93.14167785644531 24.964576721191406Q93.14167785644531 28.964576721191406 89.14167785644531 28.964576721191406L4.0 28.964576721191406Q0.0 28.964576721191406 0.0 24.964576721191406Z" stroke="#b8b8b8" stroke-width="2.0" stroke-dasharray="none" opacity="1.0" fill="#ffffff"/><g id="ProcessOnG1151" transform="matrix(1.0,0.0,0.0,1.0,10.0,6.357288360595703)"><text id="ProcessOnText1152" fill="#000000" font-size="13" x="35.570838928222656" y="13.325" font-family="微软雅黑" font-weight="normal" font-style="normal" text-decoration="none" family="微软雅黑" text-anchor="middle" size="13">前馈计算</text></g></g><g id="ProcessOnG1153" transform="matrix(1.0,0.0,0.0,1.0,831.4583129882812,569.0)" opacity="1.0"><path id="ProcessOnPath1154" d="M0.0 4.0Q0.0 0.0 4.0 0.0L86.0 0.0Q90.0 0.0 90.0 4.0L90.0 24.964576721191406Q90.0 28.964576721191406 86.0 28.964576721191406L4.0 28.964576721191406Q0.0 28.964576721191406 0.0 24.964576721191406Z" stroke="#b8b8b8" stroke-width="2.0" stroke-dasharray="none" opacity="1.0" fill="#ffffff"/><g id="ProcessOnG1155" transform="matrix(1.0,0.0,0.0,1.0,10.0,6.357288360595703)"><text id="ProcessOnText1156" fill="#000000" font-size="13" x="34.0" y="13.325" font-family="微软雅黑" font-weight="normal" font-style="normal" text-decoration="none" family="微软雅黑" text-anchor="middle" size="13">反馈修正</text></g></g><g id="ProcessOnG1157" transform="matrix(1.0,0.0,0.0,1.0,939.4583129882812,569.0)" opacity="1.0"><path id="ProcessOnPath1158" d="M0.0 4.0Q0.0 0.0 4.0 0.0L88.14167785644531 0.0Q92.14167785644531 0.0 92.14167785644531 4.0L92.14167785644531 24.964576721191406Q92.14167785644531 28.964576721191406 88.14167785644531 28.964576721191406L4.0 28.964576721191406Q0.0 28.964576721191406 0.0 24.964576721191406Z" stroke="#b8b8b8" stroke-width="2.0" stroke-dasharray="none" opacity="1.0" fill="#ffffff"/><g id="ProcessOnG1159" transform="matrix(1.0,0.0,0.0,1.0,10.0,6.357288360595703)"><text id="ProcessOnText1160" fill="#000000" font-size="13" x="35.070838928222656" y="13.325" font-family="微软雅黑" font-weight="normal" font-style="normal" text-decoration="none" family="微软雅黑" text-anchor="middle" size="13">值班考核</text></g></g><g id="ProcessOnG1161" transform="matrix(1.0,0.0,0.0,1.0,1076.8248470464025,674.2201750369724)" opacity="1.0"><g id="ProcessOnG1163" transform="matrix(0.35921775877385237,0.0,0.0,0.3011400253428786,0.0,0.0)"> <g id="Layer_1"> <path fill="#19486F" d="M61.057,75H13.944C7.175,75,1.625,69.448,1.625,62.68V15.704c0-6.769,5.55-12.32,12.319-12.32h47.112 c6.769,0,12.318,5.551,12.318,12.32v47.112C73.375,69.585,67.825,75,61.057,75z"/> <path fill="#2E73B8" d="M61.057,71.75H13.944c-6.769,0-12.319-5.55-12.319-12.318V12.319C1.625,5.551,7.175,0,13.944,0h47.112 c6.769,0,12.318,5.551,12.318,12.319v47.112C73.375,66.2,67.825,71.75,61.057,71.75z"/> <g> <path fill="#FFFFFF" d="M13.403,7.582c4.196,0,4.738,2.979,4.738,7.31c0,4.333-0.542,7.311-4.738,7.311 c-4.197,0-4.738-2.979-4.738-7.311C8.665,10.56,9.206,7.582,13.403,7.582z M13.403,20.036c1.625,0,1.896-1.489,1.896-5.145 c0-3.791-0.271-5.144-1.896-5.144s-1.896,1.489-1.896,5.144C11.507,18.547,11.778,20.036,13.403,20.036z"/> <path fill="#FFFFFF" d="M19.359,7.853h5.28c2.302,0,3.79,1.218,3.79,3.655c0,1.896-0.812,3.114-2.301,3.52l0,0 c1.895,0.271,2.166,1.354,2.301,4.332c0,1.489,0.136,2.301,0.677,2.572v0.135h-3.114c-0.271-0.406-0.271-0.948-0.406-1.489 l-0.135-2.708c0-1.083-0.542-1.76-1.625-1.76h-1.489v5.957h-2.842V7.853H19.359z M22.203,13.944h1.218 c1.354,0,2.166-0.542,2.166-2.166c0-1.354-0.677-1.896-1.896-1.896h-1.354v4.062H22.203z"/> <path fill="#FFFFFF" d="M32.897,7.853h3.52l3.655,13.943h-2.978l-0.677-2.978h-3.791l-0.677,2.978h-2.978L32.897,7.853z M33.303,16.517h2.708l-1.354-6.363l0,0L33.303,16.517z"/> <path fill="#FFFFFF" d="M46.435,12.59c0-2.03-0.406-2.979-1.624-2.979c-1.489,0-1.761,1.489-1.761,5.416 c0,4.197,0.542,5.009,1.761,5.009c1.083,0,1.76-0.541,1.76-3.52h2.843c0,2.979-0.812,5.686-4.468,5.686 c-4.195,0-4.737-2.979-4.737-7.311c0-4.332,0.542-7.31,4.737-7.31c4.062,0,4.333,2.979,4.333,5.009H46.435z"/> <path fill="#FFFFFF" d="M50.361,21.796V7.853h2.842v11.643h5.01v2.301H50.361z"/> <path fill="#FFFFFF" d="M66.877,7.853v2.301h-5.009v3.25h4.738v2.301h-4.738v3.791h5.144v2.301h-7.986V7.853H66.877z"/> </g> </g>  </g></g><g id="ProcessOnG1164" transform="matrix(1.0,0.0,0.0,1.0,1076.19830444389,380.1333508767615)" opacity="1.0"><g id="ProcessOnG1166" transform="matrix(0.43967901930704095,0.0,0.0,0.2672673228069241,0.0,0.0)"> <path fill="#00BCF2" d="M23.979,75.952C16.857,75.438,9.82,73.649,5.504,71.25c-2.459-1.365-4.332-3.044-5.067-4.538L0,65.821 v-27.91V9.999l0.347-0.702c1.546-3.136,6.481-5.964,13.372-7.66c2.339-0.576,5.715-1.149,8.469-1.439 C25-0.099,32.456-0.053,35.262,0.276c7.454,0.875,13.8,2.834,17.71,5.469c1.507,1.017,3.056,2.642,3.579,3.762L57,10.467 l-0.038,27.827L56.925,66.12l-0.36,0.734c-0.2,0.401-0.799,1.193-1.334,1.76c-3.251,3.441-10.225,5.99-19.373,7.075 C33.992,75.911,25.893,76.089,23.979,75.952L23.979,75.952z M37.103,52.036c-0.028-0.071-1.095-1.021-2.366-2.105 c-1.273-1.088-2.371-2.026-2.438-2.09s0.168-0.283,0.523-0.491s1.032-0.785,1.51-1.285c1.391-1.458,2.047-3.258,2.047-5.617 c0-2.321-0.705-4.196-2.126-5.625c-1.429-1.442-3.068-2.061-5.46-2.061c-3.685,0-6.513,2.148-7.417,5.63 c-0.312,1.197-0.31,3.616,0.002,4.679c0.815,2.77,3.033,4.782,5.793,5.255c0.934,0.158,1.061,0.229,1.698,0.925 c0.378,0.412,1.157,1.238,1.725,1.833l1.038,1.082h2.76C35.911,52.165,37.13,52.105,37.103,52.036L37.103,52.036z M27.64,44.317 c-0.663-0.347-0.915-0.615-1.294-1.385c-0.292-0.595-0.342-0.931-0.346-2.336c-0.003-1.426,0.042-1.735,0.348-2.354 c0.5-1.016,1.188-1.496,2.254-1.573c1.483-0.106,2.34,0.619,2.787,2.367c0.55,2.144-0.055,4.421-1.373,5.177 C29.322,44.61,28.29,44.654,27.64,44.317L27.64,44.317z M15.41,48.295c2.893-0.549,4.535-2.23,4.535-4.643 c0-2.141-1.06-3.388-3.992-4.694c-1.676-0.748-2.284-1.217-2.284-1.766c0-0.455,0.576-0.952,1.247-1.078 c0.655-0.122,2.393,0.18,3.42,0.594l0.861,0.348v-1.903V33.25l-0.935-0.208c-0.576-0.127-1.79-0.204-3.174-0.2 c-1.961,0-2.346,0.047-3.084,0.34c-2.156,0.855-3.18,2.312-3.163,4.505c0.015,2.05,1.098,3.331,3.795,4.482 c1.591,0.68,2.229,1.197,2.229,1.81c0,1.298-2.167,1.457-4.461,0.328c-0.628-0.311-1.192-0.588-1.255-0.619 c-0.062-0.03-0.112,0.858-0.112,1.975c0,2.021,0.003,2.033,0.369,2.173C10.787,48.359,13.837,48.593,15.41,48.295z M48.482,46.419 v-1.718h-2.615h-2.614v-5.895v-5.896h-2.316h-2.315v7.612v7.612h4.931h4.931V46.419L48.482,46.419z M32.347,16.338 c4.602-0.318,8.052-0.921,11.087-1.935c3.024-1.01,4.811-2.233,5.21-3.566c0.152-0.513,0.143-0.708-0.071-1.271 c-0.966-2.524-6.354-4.462-14.591-5.249c-3.522-0.336-9.931-0.227-13.288,0.227c-5.126,0.692-9.286,1.977-11.135,3.439 c-3.741,2.96,0.215,6.215,9.416,7.748C22.963,16.396,28.132,16.631,32.347,16.338L32.347,16.338z"/>  </g></g><g id="ProcessOnG1167" transform="matrix(1.0,0.0,0.0,1.0,1071.2042285414243,518.8114778466465)" opacity="1.0"><path id="ProcessOnPath1168" d="M0.0 0.0L35.04985590543269 0.0L35.04985590543269 37.99068789793696L0.0 37.99068789793696Z" stroke="none" stroke-width="0.0" stroke-dasharray="none" opacity="1.0"/></g><g id="ProcessOnG1171" transform="matrix(1.0,0.0,0.0,1.0,165.0,509.7291564941406)" opacity="1.0"><path id="ProcessOnPath1172" d="M10.799999999999999 49.0C-9.0 35.0 3.6 24.5 8.1 21.0C6.300000000000001 3.5 28.8 0.0 37.8 7.0C45.0 -3.5 67.5 0.0 67.5 10.5C85.5 7.0 92.7 21.0 85.5 38.5C91.8 52.5 85.5 70.0 64.8 63.0C60.300000000000004 72.10000000000001 42.3 72.10000000000001 37.8 63.0C28.8 70.0 10.799999999999999 66.5 10.799999999999999 49.0Z" stroke="#ff9933" stroke-width="2.0" stroke-dasharray="none" opacity="1.0" fill="#ffffff"/><g id="ProcessOnG1173" transform="matrix(1.0,0.0,0.0,1.0,10.0,26.875)"><text id="ProcessOnText1174" fill="#000000" font-size="13" x="34.0" y="13.325" font-family="微软雅黑" font-weight="normal" font-style="normal" text-decoration="none" family="微软雅黑" text-anchor="middle" size="13">MIM云</text></g></g><g id="ProcessOnG1175" transform="matrix(1.0,0.0,0.0,1.0,1145.0,262.12915802001953)" opacity="1.0"><path id="ProcessOnPath1176" d="M10.799999999999999 49.0C-9.0 35.0 3.6 24.5 8.1 21.0C6.300000000000001 3.5 28.8 0.0 37.8 7.0C45.0 -3.5 67.5 0.0 67.5 10.5C85.5 7.0 92.7 21.0 85.5 38.5C91.8 52.5 85.5 70.0 64.8 63.0C60.300000000000004 72.10000000000001 42.3 72.10000000000001 37.8 63.0C28.8 70.0 10.799999999999999 66.5 10.799999999999999 49.0Z" stroke="#ff9933" stroke-width="2.0" stroke-dasharray="none" opacity="1.0" fill="#ffffff"/><g id="ProcessOnG1177" transform="matrix(1.0,0.0,0.0,1.0,10.0,26.875)"><text id="ProcessOnText1178" fill="#000000" font-size="13" x="34.0" y="13.325" font-family="微软雅黑" font-weight="normal" font-style="normal" text-decoration="none" family="微软雅黑" text-anchor="middle" size="13">MIM云</text></g></g><g id="ProcessOnG1179" transform="matrix(1.0,0.0,0.0,1.0,1129.0036401748657,360.7177085876465)" opacity="1.0"><path id="ProcessOnPath1180" d="M0.0 0.0L34.500003814697266 0.0L34.500003814697266 40.88228988647461L0.0 40.88228988647461Z" stroke="none" stroke-width="0.0" stroke-dasharray="none" opacity="1.0"/></g><g id="ProcessOnG1183" transform="matrix(1.0,0.0,0.0,1.0,1129.5072841644287,579.7291564941406)" opacity="1.0"><g id="ProcessOnG1185" transform="matrix(0.06541546061635017,0.0,0.0,0.0676473081111908,0.0,0.0)"> <path fill="#3B9CD9" d="M498.389,101.527c-10.829-62.573-25.871-77.413-89.246-88.544c-40.411-7.02-97.368-11.131-156.331-11.131 c-58.461,0-112.51,3.811-152.119,10.729C38.12,23.411,23.28,38.453,12.149,101.828c-14.64,83.931-14.941,225.121-0.501,308.451 c10.829,62.572,25.871,77.413,89.246,88.544c40.411,7.12,97.569,11.131,156.632,11.131c58.261,0,112.21-3.812,151.818-10.629 c62.573-10.83,77.413-25.872,88.544-89.246C512.628,326.146,512.828,184.856,498.389,101.527 M482.545,407.37 c-9.927,56.856-19.854,66.884-75.809,76.611c-38.808,6.719-91.753,10.428-149.211,10.428c-58.261,0-114.315-4.011-153.925-10.931 c-56.857-9.927-66.884-19.854-76.511-75.809C12.95,325.845,13.151,187.062,27.59,104.635c9.927-56.857,19.855-66.884,75.809-76.511 c38.807-6.719,91.954-10.429,149.512-10.429c58.06,0,114.115,4.011,153.624,10.93c56.856,9.927,66.884,19.855,76.611,75.809 C497.186,186.06,496.985,324.843,482.545,407.37"/> <path fill="#3B9CD9" d="M437.12,247.429c-2.106,0-4.011,0.602-5.816,1.504l-21.559-25.771c1.404-2.106,2.406-4.512,2.406-7.22 c0-7.32-5.916-13.337-13.337-13.337c-1.203,0-2.206,0.401-3.31,0.702l-24.868-42.818c3.209-2.406,5.415-6.117,5.415-10.429 c0-7.32-5.916-13.337-13.337-13.337c-5.014,0-9.226,2.908-11.532,7.019l-44.623-17.549c0.401-1.203,0.803-2.507,0.803-3.811 c0-7.32-5.916-13.337-13.337-13.337c-7.32,0-13.338,5.916-13.338,13.337c0,2.005,0.503,3.811,1.203,5.415l-38.807,21.76 c-2.406-3.309-6.117-5.616-10.529-5.616c-7.32,0-13.337,5.916-13.337,13.337c0,0.301,0.201,0.602,0.201,0.903l-51.342,9.125 c-1.705-5.415-6.518-9.426-12.535-9.426c-7.32,0-13.337,5.916-13.337,13.337c0,5.315,3.209,9.927,7.721,12.033l-9.627,25.872 c-1.203-0.301-2.306-0.702-3.61-0.702c-7.32,0-13.337,5.916-13.337,13.337c0,2.206,0.602,4.111,1.504,5.916L97.882,244.62 c-2.407-2.507-5.716-4.011-9.526-4.011c-7.32,0-13.337,5.916-13.337,13.337c0,6.719,5.014,11.933,11.432,12.936v47.832 c-6.418,0.903-11.432,6.217-11.432,12.937c0,7.319,5.916,13.337,13.337,13.337c3.51,0,6.719-1.404,9.125-3.71l28.378,24.267 c-1.203,2.005-2.005,4.111-2.005,6.618c0,7.32,5.916,13.337,13.337,13.337c6.618,0,11.933-5.014,12.936-11.432h92.756 c1.003,6.418,6.217,11.432,12.936,11.432c6.719,0,11.933-5.014,12.936-11.432h86.639c1.004,6.418,6.218,11.432,12.937,11.432 c7.32,0,13.337-5.916,13.337-13.337c0-1.304-0.401-2.607-0.802-3.812l33.19-16.444c2.407,3.41,6.218,5.815,10.729,5.815 c7.32,0,13.337-5.916,13.337-13.337c0-6.017-4.011-10.83-9.426-12.535l9.525-53.647c6.72-0.603,12.135-6.117,12.135-13.036 C450.457,253.345,444.44,247.429,437.12,247.429 M395.705,228.477c1.003,0.301,2.105,0.602,3.209,0.602 c3.008,0,5.616-1.203,7.721-2.808l20.958,25.069c-2.306,2.406-3.811,5.615-3.811,9.326c0,1.203,0.4,2.306,0.702,3.51l-47.832,20.256 c-1.003-1.904-2.407-3.409-4.212-4.612L395.705,228.477z M368.531,278.014c-1.104-0.301-2.206-0.701-3.41-0.701 c-1.203,0-2.306,0.4-3.41,0.701L345.968,236.7c3.71-2.106,6.318-5.816,6.72-10.228l33.692-7.019c0.903,3.008,2.707,5.515,5.315,7.22 L368.531,278.014z M267.953,275.607c3.51-0.803,6.318-2.908,8.122-5.916l72.099,19.955l3.71,1.003c0,0.802,0.301,1.403,0.401,2.206 l-73.403,19.052c-2.005-4.011-5.916-6.719-10.629-7.22v-0.401L267.953,275.607z M183.721,300.074l70.996-28.78 c2.206,2.607,5.214,4.313,8.725,4.713l0.1,9.728l0.201,19.454c-4.313,1.103-7.621,4.11-9.125,8.223l-70.795-11.632 c0-0.201,0.1-0.401,0.1-0.603C184.022,300.776,183.821,300.375,183.721,300.074 M150.128,221.257l61.068-14.44 c2.106,4.613,6.719,7.922,12.134,7.922c2.005,0,3.811-0.502,5.515-1.304l26.874,39.91c-1.203,1.203-2.206,2.507-2.908,4.111 l-103.084-33.994c0.1-0.702,0.401-1.304,0.401-2.005C150.228,221.357,150.128,221.257,150.128,221.257 M251.709,262.17 c0,0.301-0.201,0.502-0.201,0.702c0,1.604,0.401,3.109,0.903,4.512l-69.793,28.278c-2.106-4.613-6.618-7.821-12.033-7.821 c-0.602,0-1.203,0.301-1.805,0.401l-24.066-56.356c1.504-1.103,2.707-2.507,3.71-4.212L251.709,262.17z M259.43,250.838 l-26.874-39.91c2.507-2.406,4.111-5.816,4.111-9.526v-0.301l46.428-9.727c1.203,2.908,3.41,5.214,6.218,6.618l-20.657,52.244 c-1.203-0.401-2.407-0.802-3.71-0.802C262.94,249.635,261.034,250.137,259.43,250.838 M277.58,265.579 c0.201-0.903,0.502-1.705,0.502-2.607c0-0.702-0.301-1.403-0.401-2.105l52.244-26.473c2.407,2.607,5.816,4.212,9.627,4.212 c0.802,0,1.404-0.301,2.106-0.401l15.844,41.814c-2.306,1.604-4.011,3.71-5.014,6.419L277.58,265.579z M362.915,163.197 c1.404,0,2.707-0.401,4.011-0.802l24.769,42.618c-3.31,2.206-5.516,5.816-5.816,10.028l-33.492,6.919 c-0.902-3.51-3.108-6.418-6.217-8.223l15.042-50.941C361.712,162.896,362.213,163.197,362.915,163.197 M352.787,158.183 c1.103,1.404,2.507,2.507,4.111,3.41l-13.738,46.328l-1.304,4.412c-0.702-0.1-1.404-0.401-2.206-0.401 c-3.41,0-6.418,1.404-8.825,3.51l-24.167-22.362c1.103-2.005,2.005-4.111,2.005-6.518c0-1.304-0.401-2.607-0.802-3.811 L352.787,158.183z M304.655,130.106l45.325,17.849c-0.101,0.702-0.401,1.304-0.401,2.005c0,1.604,0.401,3.109,0.903,4.512 l-44.623,24.267c-1.905-2.507-4.613-4.313-7.821-5.014l-1.304-37.403l-0.101-1.304C300.042,134.417,302.749,132.613,304.655,130.106 M295.329,199.798c3.309,0,6.217-1.304,8.523-3.309l24.268,22.462c-1.003,1.905-1.805,3.911-1.805,6.318 c0,1.905,0.4,3.71,1.202,5.315l-51.141,25.972c-0.903-1.705-2.206-3.108-3.811-4.211l20.957-52.947 C294.126,199.497,294.727,199.798,295.329,199.798 M245.291,153.47l39.308-22.061c2.005,2.106,4.714,3.309,7.621,3.811l1.305,38.406 c-3.71,0.502-6.819,2.406-8.926,5.315l-39.509-17.749c0.401-1.304,0.802-2.607,0.802-4.011 C245.993,155.877,245.592,154.673,245.291,153.47 M232.355,170.416c0.1,0,0.201,0.1,0.301,0.1c4.312,0,8.022-2.206,10.429-5.415 l39.609,17.849c-0.302,1.203-0.702,2.306-0.702,3.61c0,0.201,0.1,0.401,0.1,0.702l-46.528,9.727c-1.304-3.41-3.811-6.217-7.22-7.621 L232.355,170.416z M168.88,171.52l51.642-9.125c1.404,3.309,4.111,5.816,7.521,7.12l-4.011,18.852c-0.301,0-0.502-0.201-0.802-0.201 c-4.613,0-8.423,2.507-10.83,6.017l-44.122-19.955C168.579,173.324,168.88,172.422,168.88,171.52 M154.541,184.054 c0.401,0,0.802,0.201,1.203,0.201c4.613,0,8.423-2.507,10.83-6.017l44.122,19.955c-0.301,1.103-0.702,2.106-0.702,3.209 c0,0.401,0.201,0.702,0.201,1.003l-60.968,14.44c-0.903-2.507-2.607-4.512-4.713-6.117L154.541,184.054z M127.666,230.984 c2.407,2.306,5.616,3.71,9.226,3.71c1.404,0,2.607-0.401,3.911-0.802l23.866,55.553c-1.504,0.802-2.808,1.805-3.911,3.108 l-52.745-31.287l-6.719-4.011c0.401-1.203,0.802-2.406,0.802-3.811c0-2.005-0.502-3.811-1.304-5.515L127.666,230.984z M91.266,314.414v-48.133c3.309-0.702,6.017-2.407,7.922-5.015l59.163,35.098c-0.602,1.504-1.003,3.108-1.003,4.813 c0,1.003,0.401,2.005,0.602,2.908l-57.759,16.746C98.386,317.522,95.177,315.216,91.266,314.414 M137.494,354.324 c-3.209,0-6.117,1.304-8.423,3.209l-28.679-24.367c0.903-1.805,1.604-3.811,1.604-6.017c0-0.702-0.301-1.404-0.401-2.106l3.41-1.003 l54.751-15.944c1.203,1.806,2.707,3.31,4.613,4.412l-23.164,42.518C139.9,354.725,138.797,354.324,137.494,354.324 M148.324,360.44 c-0.802-1.304-1.905-2.406-3.209-3.409l23.465-43.02c0.702,0.101,1.404,0.401,2.106,0.401c5.616,0,10.328-3.41,12.234-8.323 l70.795,11.532v0.1c0,0.702,0.301,1.305,0.401,1.905L148.324,360.44z M255.118,354.524c-6.017,0.4-10.729,4.813-11.833,10.528 h-92.956c0-0.201-0.1-0.301-0.1-0.502l105.39-40.611c1.304,2.507,3.309,4.512,5.916,5.716L255.118,354.524z M355.695,365.053h-86.84 c-1.004-4.913-4.513-8.724-9.227-10.027l6.117-24.268c0.502,0,0.903,0.301,1.404,0.301c4.412,0,8.122-2.306,10.528-5.515 l78.416,38.005C355.796,364.051,355.796,364.552,355.695,365.053 M358.102,359.638l-78.517-38.104 c0.401-1.203,0.802-2.407,0.802-3.812c0-0.602-0.301-1.103-0.301-1.604l73.703-19.052c2.005,3.409,5.314,5.815,9.326,6.418 l2.908,51.342C362.815,355.427,360.007,357.131,358.102,359.638 M412.351,343.293l-33.392,16.546 c-2.005-2.707-5.014-4.613-8.524-5.114l-2.907-51.342c1.904-0.4,3.609-1.103,5.214-2.206l40.611,32.59 c-1.003,1.806-1.704,3.812-1.704,6.117C411.65,341.188,412.051,342.19,412.351,343.293 M424.385,326.748 c-3.309,0.1-6.217,1.404-8.523,3.51l-32.189-25.771l-8.021-6.418c1.504-2.206,2.606-4.613,2.606-7.521 c0-0.702-0.301-1.304-0.4-1.905l48.434-20.457c1.805,2.508,4.312,4.313,7.42,5.114L424.385,326.748z"/>  </g></g><g id="ProcessOnG1186" transform="matrix(1.0,0.0,0.0,1.0,934.5166244506836,404.8822898864746)" opacity="1.0"><path id="ProcessOnPath1187" d="M0.0 4.0Q0.0 0.0 4.0 0.0L85.94168853759766 0.0Q89.94168853759766 0.0 89.94168853759766 4.0L89.94168853759766 24.964576721191406Q89.94168853759766 28.964576721191406 85.94168853759766 28.964576721191406L4.0 28.964576721191406Q0.0 28.964576721191406 0.0 24.964576721191406Z" stroke="#b8b8b8" stroke-width="2.0" stroke-dasharray="none" opacity="1.0" fill="#ffffff"/><g id="ProcessOnG1188" transform="matrix(1.0,0.0,0.0,1.0,10.0,6.357288360595703)"><text id="ProcessOnText1189" fill="#000000" font-size="13" x="33.97084426879883" y="13.325" font-family="微软雅黑" font-weight="normal" font-style="normal" text-decoration="none" family="微软雅黑" text-anchor="middle" size="13">安防管理</text></g></g><g id="ProcessOnG1190" transform="matrix(1.0,0.0,0.0,1.0,934.5166244506836,364.8822898864746)" opacity="1.0"><path id="ProcessOnPath1191" d="M0.0 4.0Q0.0 0.0 4.0 0.0L85.94168853759766 0.0Q89.94168853759766 0.0 89.94168853759766 4.0L89.94168853759766 24.964576721191406Q89.94168853759766 28.964576721191406 85.94168853759766 28.964576721191406L4.0 28.964576721191406Q0.0 28.964576721191406 0.0 24.964576721191406Z" stroke="#b8b8b8" stroke-width="2.0" stroke-dasharray="none" opacity="1.0" fill="#ffffff"/><g id="ProcessOnG1192" transform="matrix(1.0,0.0,0.0,1.0,10.0,6.357288360595703)"><text id="ProcessOnText1193" fill="#000000" font-size="13" x="33.97084426879883" y="13.325" font-family="微软雅黑" font-weight="normal" font-style="normal" text-decoration="none" family="微软雅黑" text-anchor="middle" size="13">巡检管理</text></g></g><g id="ProcessOnG1194" transform="matrix(1.0,0.0,0.0,1.0,413.45831298828125,638.4000015258789)" opacity="1.0"><path id="ProcessOnPath1195" d="M0.0 4.0Q0.0 0.0 4.0 0.0L100.94168853759766 0.0Q104.94168853759766 0.0 104.94168853759766 4.0L104.94168853759766 24.964576721191406Q104.94168853759766 28.964576721191406 100.94168853759766 28.964576721191406L4.0 28.964576721191406Q0.0 28.964576721191406 0.0 24.964576721191406Z" stroke="#b8b8b8" stroke-width="2.0" stroke-dasharray="none" opacity="1.0" fill="#ffffff"/><g id="ProcessOnG1196" transform="matrix(1.0,0.0,0.0,1.0,10.0,6.357288360595703)"><text id="ProcessOnText1197" fill="#000000" font-size="13" x="41.47084426879883" y="13.325" font-family="微软雅黑" font-weight="normal" font-style="normal" text-decoration="none" family="微软雅黑" text-anchor="middle" size="13">SCADA</text></g></g><g id="ProcessOnG1198" transform="matrix(1.0,0.0,0.0,1.0,534.4583129882812,638.4000015258789)" opacity="1.0"><path id="ProcessOnPath1199" d="M0.0 4.0Q0.0 0.0 4.0 0.0L100.94168853759766 0.0Q104.94168853759766 0.0 104.94168853759766 4.0L104.94168853759766 24.964576721191406Q104.94168853759766 28.964576721191406 100.94168853759766 28.964576721191406L4.0 28.964576721191406Q0.0 28.964576721191406 0.0 24.964576721191406Z" stroke="#b8b8b8" stroke-width="2.0" stroke-dasharray="none" opacity="1.0" fill="#ffffff"/><g id="ProcessOnG1200" transform="matrix(1.0,0.0,0.0,1.0,10.0,6.357288360595703)"><text id="ProcessOnText1201" fill="#000000" font-size="13" x="41.47084426879883" y="13.325" font-family="微软雅黑" font-weight="normal" font-style="normal" text-decoration="none" family="微软雅黑" text-anchor="middle" size="13">OPC</text></g></g><g id="ProcessOnG1202" transform="matrix(1.0,0.0,0.0,1.0,652.4583129882812,638.4000015258789)" opacity="1.0"><path id="ProcessOnPath1203" d="M0.0 4.0Q0.0 0.0 4.0 0.0L100.94168853759766 0.0Q104.94168853759766 0.0 104.94168853759766 4.0L104.94168853759766 24.964576721191406Q104.94168853759766 28.964576721191406 100.94168853759766 28.964576721191406L4.0 28.964576721191406Q0.0 28.964576721191406 0.0 24.964576721191406Z" stroke="#b8b8b8" stroke-width="2.0" stroke-dasharray="none" opacity="1.0" fill="#ffffff"/><g id="ProcessOnG1204" transform="matrix(1.0,0.0,0.0,1.0,10.0,6.357288360595703)"><text id="ProcessOnText1205" fill="#000000" font-size="13" x="41.47084426879883" y="13.325" font-family="微软雅黑" font-weight="normal" font-style="normal" text-decoration="none" family="微软雅黑" text-anchor="middle" size="13">TCP/IP</text></g></g><g id="ProcessOnG1206" transform="matrix(1.0,0.0,0.0,1.0,773.4583129882812,638.4000015258789)" opacity="1.0"><path id="ProcessOnPath1207" d="M0.0 0.0L104.94168853759766 0.0L104.94168853759766 28.964576721191406L0.0 28.964576721191406Z" stroke="#b8b8b8" stroke-width="2.0" stroke-dasharray="none" opacity="1.0" fill="#ffffff"/><g id="ProcessOnG1208" transform="matrix(1.0,0.0,0.0,1.0,10.0,6.357288360595703)"><text id="ProcessOnText1209" fill="#000000" font-size="13" x="41.47084426879883" y="13.325" font-family="微软雅黑" font-weight="normal" font-style="normal" text-decoration="none" family="微软雅黑" text-anchor="middle" size="13">Pi</text></g></g><g id="ProcessOnG1210" transform="matrix(1.0,0.0,0.0,1.0,892.4583129882812,638.4000015258789)" opacity="1.0"><path id="ProcessOnPath1211" d="M0.0 4.0Q0.0 0.0 4.0 0.0L100.94168853759766 0.0Q104.94168853759766 0.0 104.94168853759766 4.0L104.94168853759766 24.964576721191406Q104.94168853759766 28.964576721191406 100.94168853759766 28.964576721191406L4.0 28.964576721191406Q0.0 28.964576721191406 0.0 24.964576721191406Z" stroke="#b8b8b8" stroke-width="2.0" stroke-dasharray="none" opacity="1.0" fill="#ffffff"/><g id="ProcessOnG1212" transform="matrix(1.0,0.0,0.0,1.0,10.0,6.357288360595703)"><text id="ProcessOnText1213" fill="#000000" font-size="13" x="41.47084426879883" y="13.325" font-family="微软雅黑" font-weight="normal" font-style="normal" text-decoration="none" family="微软雅黑" text-anchor="middle" size="13">SQL</text></g></g><g id="ProcessOnG1214" transform="matrix(1.0,0.0,0.0,1.0,460.95831298828125,522.0)" opacity="1.0"><path id="ProcessOnPath1215" d="M0.0 4.0Q0.0 0.0 4.0 0.0L85.94168853759766 0.0Q89.94168853759766 0.0 89.94168853759766 4.0L89.94168853759766 24.964576721191406Q89.94168853759766 28.964576721191406 85.94168853759766 28.964576721191406L4.0 28.964576721191406Q0.0 28.964576721191406 0.0 24.964576721191406Z" stroke="#b8b8b8" stroke-width="2.0" stroke-dasharray="none" opacity="1.0" fill="#ffffff"/><g id="ProcessOnG1216" transform="matrix(1.0,0.0,0.0,1.0,10.0,6.357288360595703)"><text id="ProcessOnText1217" fill="#000000" font-size="13" x="33.97084426879883" y="13.325" font-family="微软雅黑" font-weight="normal" font-style="normal" text-decoration="none" family="微软雅黑" text-anchor="middle" size="13">质量平衡</text></g></g><g id="ProcessOnG1218" transform="matrix(1.0,0.0,0.0,1.0,656.5166244506836,522.0)" opacity="1.0"><path id="ProcessOnPath1219" d="M0.0 4.0Q0.0 0.0 4.0 0.0L85.94168853759766 0.0Q89.94168853759766 0.0 89.94168853759766 4.0L89.94168853759766 24.964576721191406Q89.94168853759766 28.964576721191406 85.94168853759766 28.964576721191406L4.0 28.964576721191406Q0.0 28.964576721191406 0.0 24.964576721191406Z" stroke="#b8b8b8" stroke-width="2.0" stroke-dasharray="none" opacity="1.0" fill="#ffffff"/><g id="ProcessOnG1220" transform="matrix(1.0,0.0,0.0,1.0,10.0,6.357288360595703)"><text id="ProcessOnText1221" fill="#000000" font-size="13" x="33.97084426879883" y="13.325" font-family="微软雅黑" font-weight="normal" font-style="normal" text-decoration="none" family="微软雅黑" text-anchor="middle" size="13">相平衡</text></g></g><g id="ProcessOnG1222" transform="matrix(1.0,0.0,0.0,1.0,558.4000015258789,522.0)" opacity="1.0"><path id="ProcessOnPath1223" d="M0.0 4.0Q0.0 0.0 4.0 0.0L85.94168853759766 0.0Q89.94168853759766 0.0 89.94168853759766 4.0L89.94168853759766 24.964576721191406Q89.94168853759766 28.964576721191406 85.94168853759766 28.964576721191406L4.0 28.964576721191406Q0.0 28.964576721191406 0.0 24.964576721191406Z" stroke="#b8b8b8" stroke-width="2.0" stroke-dasharray="none" opacity="1.0" fill="#ffffff"/><g id="ProcessOnG1224" transform="matrix(1.0,0.0,0.0,1.0,10.0,6.357288360595703)"><text id="ProcessOnText1225" fill="#000000" font-size="13" x="33.97084426879883" y="13.325" font-family="微软雅黑" font-weight="normal" font-style="normal" text-decoration="none" family="微软雅黑" text-anchor="middle" size="13">热平衡</text></g></g><g id="ProcessOnG1226"><path id="ProcessOnPath1227" d="M414.4291572570801 569.0L414.4291572570801 536.4822883605957L445.7222450107815 536.4822883605957" stroke="#b8b8b8" stroke-width="2.0" stroke-dasharray="none" fill="none" marker-end="url(#ProcessOnMarker1228)"/></g><g id="ProcessOnG1230" transform="matrix(1.0,0.0,0.0,1.0,378.45831298828125,448.0)" opacity="1.0"><path id="ProcessOnPath1231" d="M0.0 4.0Q0.0 0.0 4.0 0.0L642.0 0.0Q646.0 0.0 646.0 4.0L646.0 30.364578247070312Q646.0 34.36457824707031 642.0 34.36457824707031L4.0 34.36457824707031Q0.0 34.36457824707031 0.0 30.364578247070312Z" stroke="#b8b8b8" stroke-width="2.0" stroke-dasharray="none" opacity="1.0" fill="#ffffff"/><g id="ProcessOnG1232" transform="matrix(1.0,0.0,0.0,1.0,10.0,9.057289123535156)"><text id="ProcessOnText1233" fill="#000000" font-size="13" x="312.0" y="13.325" font-family="微软雅黑" font-weight="normal" font-style="normal" text-decoration="none" family="微软雅黑" text-anchor="middle" size="13">数字双胞胎（虚实互联）</text></g></g></g></g></svg>